<svg id="Layer_1" data-name="Layer 1" xmlns="http://www.w3.org/2000/svg" xmlns:xlink="http://www.w3.org/1999/xlink" viewBox="0 0 996.04 294.44"><defs><style>.cls-1{fill:none;}.cls-2{fill:#d3b34e;}.cls-3{fill:url(#radial-gradient);}.cls-4{fill:url(#radial-gradient-2);}.cls-5{fill:url(#radial-gradient-3);}.cls-6{fill:url(#radial-gradient-5);}.cls-7{fill:url(#radial-gradient-6);}.cls-8{fill:url(#radial-gradient-7);}.cls-9{fill:url(#radial-gradient-8);}.cls-10{fill:url(#radial-gradient-9);}.cls-11{fill:url(#radial-gradient-10);}.cls-12{fill:url(#radial-gradient-12);}.cls-13{fill:url(#radial-gradient-17);}.cls-14{fill:url(#radial-gradient-18);}.cls-15{fill:url(#radial-gradient-20);}.cls-16{fill:url(#radial-gradient-21);}.cls-17{fill:url(#radial-gradient-22);}.cls-18{fill:url(#radial-gradient-23);}.cls-19{fill:url(#radial-gradient-26);}.cls-20{fill:url(#radial-gradient-27);}.cls-21{fill:url(#radial-gradient-32);}.cls-22{fill:url(#radial-gradient-37);}.cls-23{fill:url(#radial-gradient-42);}.cls-24{fill:url(#radial-gradient-43);}.cls-25{fill:url(#radial-gradient-44);}.cls-26{fill:url(#radial-gradient-46);}.cls-27{fill:url(#radial-gradient-47);}.cls-28{fill:url(#radial-gradient-49);}.cls-29{fill:url(#radial-gradient-50);}.cls-30{fill:url(#radial-gradient-51);}.cls-31{fill:url(#radial-gradient-52);}.cls-32{fill:url(#radial-gradient-53);}.cls-33{fill:url(#radial-gradient-58);}.cls-34{fill:url(#radial-gradient-69);}.cls-35{fill:url(#radial-gradient-72);}.cls-36{fill:url(#radial-gradient-76);}.cls-37{fill:url(#radial-gradient-78);}.cls-38{fill:url(#radial-gradient-79);}.cls-39{fill:url(#radial-gradient-80);}.cls-40{fill:url(#radial-gradient-85);}.cls-41{fill:url(#radial-gradient-86);}.cls-42{fill:url(#radial-gradient-89);}.cls-43{fill:url(#radial-gradient-90);}.cls-44{fill:url(#radial-gradient-95);}.cls-45{fill:url(#radial-gradient-97);}.cls-46{fill:url(#radial-gradient-102);}.cls-47{fill:url(#radial-gradient-103);}.cls-48{fill:url(#radial-gradient-111);}.cls-49{fill:url(#radial-gradient-112);}.cls-50{fill:url(#radial-gradient-113);}.cls-51,.cls-54,.cls-55{fill:#fff;}.cls-51{stroke:#c4a006;stroke-width:0.95px;}.cls-52{fill:#005699;}.cls-52,.cls-53{stroke:#dbe0ee;stroke-width:0.15px;}.cls-53{fill:#99add2;}.cls-54{stroke:#005699;stroke-width:2px;}</style><radialGradient id="radial-gradient" cx="210.18" cy="415.58" r="294.87" gradientTransform="translate(-149.76 -389.37)" gradientUnits="userSpaceOnUse"><stop offset="0" stop-color="#e7d298"/><stop offset="1" stop-color="#c4a006"/></radialGradient><radialGradient id="radial-gradient-2" cx="210.17" cy="-312.41" r="294.85" gradientTransform="matrix(1, 0, 0, -1, -122.88, -68.78)" xlink:href="#radial-gradient"/><radialGradient id="radial-gradient-3" cx="210.17" cy="-312.41" r="294.84" gradientTransform="matrix(1, 0, 0, -1, -122.88, -68.78)" xlink:href="#radial-gradient"/><radialGradient id="radial-gradient-5" cx="210.18" cy="-312.42" r="294.85" gradientTransform="matrix(1, 0, 0, -1, -122.88, -68.78)" xlink:href="#radial-gradient"/><radialGradient id="radial-gradient-6" cx="210.18" cy="-312.42" r="294.86" gradientTransform="matrix(1, 0, 0, -1, -122.88, -68.78)" xlink:href="#radial-gradient"/><radialGradient id="radial-gradient-7" cx="210.17" cy="-312.43" r="294.86" gradientTransform="matrix(1, 0, 0, -1, -122.88, -68.78)" xlink:href="#radial-gradient"/><radialGradient id="radial-gradient-8" cx="210.18" cy="-312.41" r="294.84" gradientTransform="matrix(1, 0, 0, -1, -122.88, -68.78)" xlink:href="#radial-gradient"/><radialGradient id="radial-gradient-9" cx="210.17" cy="415.59" r="294.85" gradientTransform="translate(-149.76 -389.37)" gradientUnits="userSpaceOnUse"><stop offset="0" stop-color="#efe0ba"/><stop offset="1" stop-color="#c4a006"/></radialGradient><radialGradient id="radial-gradient-10" cx="210.16" cy="-312.42" r="294.86" gradientTransform="matrix(1, 0, 0, -1, -122.88, -68.78)" xlink:href="#radial-gradient-9"/><radialGradient id="radial-gradient-12" cx="210.18" cy="-312.41" r="294.85" gradientTransform="matrix(1, 0, 0, -1, -122.88, -68.78)" xlink:href="#radial-gradient-9"/><radialGradient id="radial-gradient-17" cx="210.17" cy="-312.42" r="294.85" gradientTransform="matrix(1, 0, 0, -1, -122.88, -68.78)" xlink:href="#radial-gradient"/><radialGradient id="radial-gradient-18" cx="210.17" cy="-312.42" r="294.85" gradientTransform="matrix(1, 0, 0, -1, -122.88, -68.78)" xlink:href="#radial-gradient-9"/><radialGradient id="radial-gradient-20" cx="210.18" cy="-312.42" r="294.85" gradientTransform="matrix(1, 0, 0, -1, -122.88, -68.78)" xlink:href="#radial-gradient-9"/><radialGradient id="radial-gradient-21" cx="210.18" cy="-312.38" r="294.78" gradientTransform="matrix(1, 0, 0, -1, -122.88, -68.78)" xlink:href="#radial-gradient"/><radialGradient id="radial-gradient-22" cx="210.18" cy="-312.39" r="294.8" gradientTransform="matrix(1, 0, 0, -1, -122.88, -68.78)" xlink:href="#radial-gradient"/><radialGradient id="radial-gradient-23" cx="210.18" cy="-312.39" r="294.8" gradientTransform="matrix(1, 0, 0, -1, -122.88, -68.78)" xlink:href="#radial-gradient-9"/><radialGradient id="radial-gradient-26" cx="210.18" cy="-312.46" r="294.89" gradientTransform="matrix(1, 0, 0, -1, -122.88, -68.78)" xlink:href="#radial-gradient"/><radialGradient id="radial-gradient-27" cx="210.17" cy="-312.45" r="294.89" gradientTransform="matrix(1, 0, 0, -1, -122.88, -68.78)" xlink:href="#radial-gradient-9"/><radialGradient id="radial-gradient-32" cx="210.17" cy="-312.43" r="294.86" gradientTransform="matrix(1, 0, 0, -1, -122.88, -68.78)" xlink:href="#radial-gradient"/><radialGradient id="radial-gradient-37" cx="210.15" cy="-312.41" r="294.86" gradientTransform="matrix(1, 0, 0, -1, -122.88, -68.78)" xlink:href="#radial-gradient-9"/><radialGradient id="radial-gradient-42" cx="210.19" cy="-312.41" r="294.82" gradientTransform="matrix(1, 0, 0, -1, -122.88, -68.78)" xlink:href="#radial-gradient"/><radialGradient id="radial-gradient-43" cx="210.16" cy="-312.42" r="294.86" gradientTransform="matrix(1, 0, 0, -1, -122.88, -68.78)" xlink:href="#radial-gradient"/><radialGradient id="radial-gradient-44" cx="210.18" cy="-312.42" r="294.84" gradientTransform="matrix(1, 0, 0, -1, -122.88, -68.78)" xlink:href="#radial-gradient"/><radialGradient id="radial-gradient-46" cx="210.15" cy="-312.44" r="294.9" gradientTransform="matrix(1, 0, 0, -1, -122.88, -68.78)" xlink:href="#radial-gradient"/><radialGradient id="radial-gradient-47" cx="210.15" cy="-312.44" r="294.91" gradientTransform="matrix(1, 0, 0, -1, -122.88, -68.78)" xlink:href="#radial-gradient"/><radialGradient id="radial-gradient-49" cx="210.17" cy="-312.42" r="294.86" gradientTransform="matrix(1, 0, 0, -1, -122.88, -68.78)" xlink:href="#radial-gradient"/><radialGradient id="radial-gradient-50" cx="210.17" cy="-312.41" r="294.84" gradientTransform="matrix(1, 0, 0, -1, -122.88, -68.78)" xlink:href="#radial-gradient-9"/><radialGradient id="radial-gradient-51" cx="210.11" cy="-312.41" r="294.86" gradientTransform="matrix(1, 0, 0, -1, -122.88, -68.78)" xlink:href="#radial-gradient-9"/><radialGradient id="radial-gradient-52" cx="210.04" cy="-312.41" r="295.04" gradientTransform="matrix(1, 0, 0, -1, -122.88, -68.78)" xlink:href="#radial-gradient-9"/><radialGradient id="radial-gradient-53" cx="210.19" cy="-312.41" r="294.77" gradientTransform="matrix(1, 0, 0, -1, -122.88, -68.78)" xlink:href="#radial-gradient-9"/><radialGradient id="radial-gradient-58" cx="210.18" cy="-312.42" r="294.84" gradientTransform="matrix(1, 0, 0, -1, -122.88, -68.78)" xlink:href="#radial-gradient-9"/><radialGradient id="radial-gradient-69" cx="210.18" cy="-312.41" r="294.84" gradientTransform="matrix(1, 0, 0, -1, -122.88, -68.78)" xlink:href="#radial-gradient-9"/><radialGradient id="radial-gradient-72" cx="210.17" cy="-312.43" r="294.88" gradientTransform="matrix(1, 0, 0, -1, -122.88, -68.78)" xlink:href="#radial-gradient"/><radialGradient id="radial-gradient-76" cx="210.18" cy="-312.44" r="294.89" gradientTransform="matrix(1, 0, 0, -1, -122.88, -68.78)" xlink:href="#radial-gradient"/><radialGradient id="radial-gradient-78" cx="210.18" cy="-312.42" r="294.87" gradientTransform="matrix(1, 0, 0, -1, -122.88, -68.78)" xlink:href="#radial-gradient-9"/><radialGradient id="radial-gradient-79" cx="210.14" cy="-312.41" r="294.88" gradientTransform="matrix(1, 0, 0, -1, -122.88, -68.78)" xlink:href="#radial-gradient"/><radialGradient id="radial-gradient-80" cx="210.14" cy="-312.42" r="294.89" gradientTransform="matrix(1, 0, 0, -1, -122.88, -68.78)" xlink:href="#radial-gradient-9"/><radialGradient id="radial-gradient-85" cx="210.15" cy="-312.42" r="294.88" gradientTransform="matrix(1, 0, 0, -1, -122.88, -68.78)" xlink:href="#radial-gradient"/><radialGradient id="radial-gradient-86" cx="210.15" cy="-312.41" r="294.89" gradientTransform="matrix(1, 0, 0, -1, -122.88, -68.78)" xlink:href="#radial-gradient-9"/><radialGradient id="radial-gradient-89" cx="209.21" cy="-312.41" r="296.71" gradientTransform="matrix(1, 0, 0, -1, -122.88, -68.78)" xlink:href="#radial-gradient"/><radialGradient id="radial-gradient-90" cx="209.2" cy="-312.4" r="296.71" gradientTransform="matrix(1, 0, 0, -1, -122.88, -68.78)" xlink:href="#radial-gradient-9"/><radialGradient id="radial-gradient-95" cx="210.17" cy="-312.43" r="294.85" gradientTransform="matrix(1, 0, 0, -1, -122.88, -68.78)" xlink:href="#radial-gradient"/><radialGradient id="radial-gradient-97" cx="210.17" cy="-312.42" r="294.86" gradientTransform="matrix(1, 0, 0, -1, -122.88, -68.78)" xlink:href="#radial-gradient-9"/><radialGradient id="radial-gradient-102" cx="210.25" cy="-312.42" r="294.71" gradientTransform="matrix(1, 0, 0, -1, -122.88, -68.78)" xlink:href="#radial-gradient"/><radialGradient id="radial-gradient-103" cx="210.26" cy="-312.42" r="294.69" gradientTransform="matrix(1, 0, 0, -1, -122.88, -68.78)" xlink:href="#radial-gradient-9"/><radialGradient id="radial-gradient-111" cx="210.19" cy="-312.41" r="294.81" gradientTransform="matrix(1, 0, 0, -1, -122.88, -68.78)" xlink:href="#radial-gradient"/><radialGradient id="radial-gradient-112" cx="210.18" cy="-312.41" r="294.82" gradientTransform="matrix(1, 0, 0, -1, -122.88, -68.78)" xlink:href="#radial-gradient"/><radialGradient id="radial-gradient-113" cx="210.19" cy="-312.41" r="294.81" gradientTransform="matrix(1, 0, 0, -1, -122.88, -68.78)" xlink:href="#radial-gradient-9"/></defs><path class="cls-1" d="M196.47,242.83c1,3.08,1.76,7,4.94,8.4l2,.53c3.94-1,7.41-3.24,10.67-5.35,3.3-2.67,7.54-6.16,8.53-10.08.11-2.9-2.17-4.81-4.28-6.53a112.1,112.1,0,0,0-23.92-12.86l-.4.27C193.41,225.83,195.17,234.22,196.47,242.83Z" transform="translate(-0.04 -0.04)"/><path class="cls-1" d="M249.59,179.74c2.87,1.48,6.19,3.73,9.42,2.46l1.75-1a32.67,32.67,0,0,0,3.38-9.58,6.88,6.88,0,0,1,.11-.81c.44-4.32,1.23-10.41-1-14.15-2-2.13-4.94-1.87-7.66-1.6-1,.18-2.07.37-3.1.57a161.36,161.36,0,0,1-17.32,13.15C239.66,172.75,244.67,176.14,249.59,179.74Z" transform="translate(-0.04 -0.04)"/><path class="cls-1" d="M229.12,216.84c2.09,2.46,4.32,5.83,7.77,5.87l2-.25a35.35,35.35,0,0,0,7.37-8.39l.21-.35c2.06-3.83,5.12-9.15,4.5-13.46-1-2.72-3.85-3.62-6.46-4.41a113,113,0,0,0-26.81-2.71l-.68,1C219.8,202.34,224.64,209.42,229.12,216.84Z" transform="translate(-0.04 -0.04)"/><path class="cls-1" d="M63.58,171.73c-2.49,2.35-4.74,5.14-7.16,7.85-.78,2.63-5.38,5.11-2.35,7.89a81.8,81.8,0,0,0,19.58,1,84.44,84.44,0,0,1-6.5-14.65C66,173.22,64.77,172.46,63.58,171.73Z" transform="translate(-0.04 -0.04)"/><path class="cls-1" d="M199.12,213.47c3.83,2.26,8.37,3.53,12.91,5.13,2.73-.29,6.76,3,8.2-.86A82.19,82.19,0,0,0,213.57,199,84.31,84.31,0,0,1,199.12,213.47Z" transform="translate(-0.04 -0.04)"/><path class="cls-1" d="M137.32,230.89c1.12,4.29,3.4,8.36,5.48,12.65,2.13,1.73,2.66,6.93,6.4,5.2a82.29,82.29,0,0,0,8.53-18A85,85,0,0,1,137.32,230.89Z" transform="translate(-0.04 -0.04)"/><path class="cls-1" d="M81,199.41c-2.19,3.79-3.44,8.23-5,12.69.29,2.73-3,6.76.86,8.2a82.08,82.08,0,0,0,18.56-6.6A85.14,85.14,0,0,1,81,199.41Z" transform="translate(-0.04 -0.04)"/><path class="cls-1" d="M114.12,249.58c-1.47,2.87-3.73,6.19-2.45,9.41l1,1.76c3.77,2.21,8.09,3.07,12.11,3.94,4.19.43,9.51.89,12.9-1.13,2.14-2,1.87-4.94,1.6-7.66A112.49,112.49,0,0,0,131.5,230l-1.17-.22C124,235.48,119.28,242.62,114.12,249.58Z" transform="translate(-0.04 -0.04)"/><path class="cls-1" d="M40.06,155.57c-3.21-.26-7.16-1.07-9.64,1.34l-1.23,1.59c-.65,4.71.42,9.42,1.19,13.76,1.17,3.79,2.75,8.14,5.63,10.28,2.64,1.22,5.28-.16,7.69-1.45a114.47,114.47,0,0,0,15.73-12,161.63,161.63,0,0,1-17.26-13Z" transform="translate(-0.04 -0.04)"/><path class="cls-1" d="M51.48,196.07c-3.07,1-7,1.76-8.39,4.93l-.52,2c1.12,4.38,3.73,8.17,6,11.73,2.61,3.21,5.93,7,9.63,8,2.9.11,4.81-2.17,6.54-4.28a112,112,0,0,0,12.74-23.66c-.27-.39-.56-.79-.8-1.19C68.22,193.05,60,194.78,51.48,196.07Z" transform="translate(-0.04 -0.04)"/><path class="cls-1" d="M71.48,176.22a81,81,0,0,0,151.18,0,160.55,160.55,0,0,1-151.18,0Z" transform="translate(-0.04 -0.04)"/><path class="cls-1" d="M156.12,254.41c-.27,3.22-1.07,7.17,1.34,9.64l1.59,1.24c4.1.56,8.18-.17,12-.88,4.08-1.21,9.4-2.82,11.82-6.08,1.23-2.63-.16-5.28-1.45-7.68a113.34,113.34,0,0,0-17.13-21l-.78.16C159.81,237.57,158.22,246,156.12,254.41Z" transform="translate(-0.04 -0.04)"/><path class="cls-1" d="M77.72,229.22c-2.46,2.08-5.82,4.32-5.87,7.77l.25,2c2.78,3.66,6.69,6.19,10.21,8.63,3.53,1.87,7.77,3.87,11.33,3.35,2.73-1,3.62-3.84,4.41-6.46a112.94,112.94,0,0,0,2.72-26.93l-.65-.36C92.12,220,85.12,224.78,77.72,229.22Z" transform="translate(-0.04 -0.04)"/><path class="cls-1" d="M220.7,188.14c4.36.61,9,0,13.72-.23,2.42-1.3,7.41.19,7.24-3.94a81.86,81.86,0,0,0-10.77-12.45q-1.92,1.18-3.89,2.33A83.85,83.85,0,0,1,220.7,188.14Z" transform="translate(-0.04 -0.04)"/><path class="cls-1" d="M106,234.43c1.31,2.41-.18,7.41,3.94,7.24a81.17,81.17,0,0,0,14.7-13.25,83.89,83.89,0,0,1-18.85-7.78C105.12,225,105.72,229.67,106,234.43Z" transform="translate(-0.04 -0.04)"/><path class="cls-1" d="M180,237.92c2.63.79,5.11,5.38,7.88,2.35a81.4,81.4,0,0,0,1-19.9A84.1,84.1,0,0,1,170,228.3C172.73,231.83,176.42,234.72,180,237.92Z" transform="translate(-0.04 -0.04)"/><path class="cls-2" d="M28.92,166.9c.21,1,.44,2,.74,3,.22.76.47,1.58.72,2.42-.77-4.35-1.84-9.06-1.19-13.76l1.23-1.6c2.48-2.41,6.43-1.6,9.64-1.34l2.09.51A162,162,0,0,1,21,134c-.08.18-.16.36-.23.56-4.95,7.45-12.6,9.32-20.75,9v7.28c9.14-.54,18.59,2.6,22.76,12,.85,2.21,1.64,4.44,2.36,6.71q-.11-1.08-.27-2.16Z" transform="translate(-0.04 -0.04)"/><path class="cls-2" d="M45.69,210.91c.57.82,1.16,1.64,1.81,2.44l1.08,1.33c-2.29-3.56-4.89-7.35-6-11.73l.52-2c1.37-3.17,5.33-3.95,8.4-4.93,8.45-1.29,16.74-3,25.22-2.55q-1.6-2.43-3-5a81.8,81.8,0,0,1-19.58-1c-3-2.79,1.56-5.27,2.34-7.89,2.42-2.71,4.67-5.49,7.17-7.85-1.42-.86-2.82-1.74-4.18-2.65a115.27,115.27,0,0,1-15.73,12c-2.41,1.29-5.07,2.66-7.69,1.45-2.85-2.14-4.44-6.49-5.63-10.28.09.5.18,1,.26,1.51l-3.94,1.16c-.47-1.84-1-3.65-1.57-5.44a108.94,108.94,0,0,1,.48,14.45C24,192.74,17.59,197.4,10,200.27c.89,2.25,2,4.89,2.76,6.73,8.24-4,18.14-4.7,25.6,2.34q2.63,2.78,5.06,5.71c-.4-.74-.81-1.48-1.23-2.2Z" transform="translate(-0.04 -0.04)"/><path class="cls-3" d="M30.64,173.78c-.08-.5-.17-1-.26-1.51-.25-.84-.5-1.66-.72-2.42a27.94,27.94,0,0,1-.74-3l-4.07.44q.16,1.08.27,2.16c.57,1.79,1.13,3.6,1.57,5.44Z" transform="translate(-0.04 -0.04)"/><path class="cls-2" d="M30.64,173.78c-.08-.5-.17-1-.26-1.51-.25-.84-.5-1.66-.72-2.42a27.94,27.94,0,0,1-.74-3l-4.07.44q.16,1.08.27,2.16c.57,1.79,1.13,3.6,1.57,5.44Z" transform="translate(-0.04 -0.04)"/><path class="cls-2" d="M77.57,244.91a26.6,26.6,0,0,0,2.62,1.56c.67.36,1.38.75,2.12,1.13-3.52-2.45-7.43-5-10.21-8.63l-.25-2c.05-3.45,3.41-5.68,5.87-7.77,7.36-4.44,14.37-9.23,22.43-12q-2.45-1.65-4.77-3.46a82,82,0,0,1-18.56,6.58c-3.86-1.42-.56-5.47-.86-8.2,1.56-4.45,2.82-8.9,5-12.68-1.2-1.53-2.35-3.09-3.45-4.7A112,112,0,0,1,64.77,218.4c-1.73,2.11-3.64,4.39-6.54,4.28-3.7-.94-7-4.77-9.63-8,.39.61.78,1.22,1.13,1.82l-3.21,2.57c-1-1.37-2.09-2.7-3.19-4a108,108,0,0,1,5.79,12.84c1.8,8.79-2.3,15.52-8.26,21.09,1.69,1.69,3.72,3.76,5.12,5.17,6.09-6.84,15-11.27,24.55-7.64q3.21,1.5,6.33,3c-.62-.5-1.26-1-1.9-1.48Z" transform="translate(-0.04 -0.04)"/><path class="cls-4" d="M49.75,216.51c-.37-.6-.76-1.2-1.13-1.82l-1.08-1.32c-.65-.8-1.24-1.63-1.81-2.45l-3.59,2c.43.72.84,1.46,1.24,2.2,1.09,1.3,2.17,2.63,3.19,4Z" transform="translate(-0.04 -0.04)"/><path class="cls-2" d="M49.75,216.51c-.37-.6-.76-1.2-1.13-1.82l-1.08-1.32c-.65-.8-1.24-1.63-1.81-2.45l-3.59,2c.43.72.84,1.46,1.24,2.2,1.09,1.3,2.17,2.63,3.19,4Z" transform="translate(-0.04 -0.04)"/><path class="cls-2" d="M120.57,264.1c1,.18,2,.35,3,.45l1.25.13c-4-.86-8.34-1.72-12.11-3.94l-1-1.75c-1.28-3.21,1-6.55,2.45-9.42,5.12-7,9.79-14.08,16.21-19.78-2-.38-3.87-.83-5.75-1.37a81.29,81.29,0,0,1-14.72,13.25c-4.11.17-2.62-4.83-3.94-7.24-.26-4.76-.83-9.41-.21-13.79-1.71-1-3.37-2-5-3.06a113.38,113.38,0,0,1-2.63,26.93c-.79,2.62-1.69,5.46-4.41,6.46-3.56.52-7.81-1.48-11.33-3.35L84,248.74l-2,3.61c-1.66-1-3.35-1.91-5.07-2.82a111.57,111.57,0,0,1,10.37,9.79c5,7.42,3.82,15.21.45,22.64,2.21,1,4.87,2,6.71,2.82,3-8.65,9.51-16.17,19.75-16.46,2.62.07,5.24.21,7.85.45-.87-.26-1.75-.52-2.64-.74Z" transform="translate(-0.04 -0.04)"/><path class="cls-5" d="M83.93,248.77c-.53-.39-1.07-.77-1.62-1.13l-2.12-1.13c-.91-.48-1.77-1-2.62-1.56L75,248.14c.64.48,1.28,1,1.9,1.48,1.69.88,3.38,1.8,5.07,2.82Z" transform="translate(-0.04 -0.04)"/><path class="cls-2" d="M83.93,248.77c-.53-.39-1.07-.77-1.62-1.13l-2.12-1.13c-.91-.48-1.77-1-2.62-1.56L75,248.14c.64.48,1.28,1,1.9,1.48,1.69.88,3.38,1.8,5.07,2.82Z" transform="translate(-0.04 -0.04)"/><path class="cls-2" d="M167.31,265.4c1-.2,2-.44,3-.74l.85-.25c-3.86.71-7.94,1.44-12,.88l-1.59-1.24c-2.41-2.47-1.61-6.42-1.34-9.64,2.07-8.44,3.66-16.84,7.44-24.58q-2.89.55-5.86,1a82.29,82.29,0,0,1-8.53,17.95c-3.74,1.73-4.27-3.47-6.4-5.2-2.08-4.29-4.37-8.36-5.48-12.65-2-.23-3.87-.52-5.78-.87a112.42,112.42,0,0,1,7.78,25.88c.27,2.72.54,5.68-1.6,7.66-3.38,2-8.71,1.56-12.9,1.12.87.19,1.73.37,2.56.57l-.44,4.08c-1.63-.24-3.26-.42-4.89-.56a107.79,107.79,0,0,1,13,4.92c7.48,4.94,9.34,12.6,9.08,20.75h7.28c-.54-9.13,2.6-18.58,11.95-22.75,2.47-1,5-1.83,7.5-2.61-1,.1-2.08.22-3.12.37Z" transform="translate(-0.04 -0.04)"/><path class="cls-4" d="M127.36,265.22c-.82-.21-1.69-.39-2.55-.57l-1.25-.13c-1-.1-2-.27-3-.45L119.41,268c.89.23,1.77.48,2.64.74,1.63.15,3.26.33,4.88.56Z" transform="translate(-0.04 -0.04)"/><path class="cls-2" d="M127.36,265.22c-.82-.21-1.69-.39-2.55-.57l-1.25-.13c-1-.1-2-.27-3-.45L119.41,268c.89.23,1.77.48,2.64.74,1.63.15,3.26.33,4.88.56Z" transform="translate(-0.04 -0.04)"/><path class="cls-2" d="M210.81,248.86c.82-.57,1.65-1.16,2.45-1.82l.77-.63c-3.26,2.11-6.72,4.32-10.67,5.35l-2-.53c-3.18-1.36-3.94-5.32-4.94-8.4-1.3-8.59-3.06-17-2.51-25.62q-2.47,1.65-5.07,3.14a81.4,81.4,0,0,1-1,19.9c-2.78,3-5.26-1.56-7.88-2.35-3.57-3.18-7.26-6.07-9.93-9.62-1.88.53-3.77,1-5.69,1.39a113.34,113.34,0,0,1,17.13,21c1.29,2.4,2.68,5.07,1.46,7.68-2.44,3.27-7.76,4.87-11.83,6.08,1.12-.21,2.18-.4,3.24-.57l1.13,4c-1.57.39-3.11.84-4.65,1.32a113,113,0,0,1,13.52-.39c8.8,1.69,13.45,8.06,16.33,15.7,2.26-.89,4.9-2,6.73-2.76-4-8.24-4.69-18.14,2.34-25.6q2.82-2.67,5.82-5.18c-.94.5-1.88,1-2.82,1.57Z" transform="translate(-0.04 -0.04)"/><path class="cls-6" d="M174.36,263.83c-1.06.17-2.14.36-3.24.56l-.85.25c-1,.3-2,.54-3,.75l.43,4.07c1-.15,2.09-.27,3.12-.37,1.54-.48,3.08-.93,4.65-1.32Z" transform="translate(-0.04 -0.04)"/><path class="cls-2" d="M174.36,263.83c-1.06.17-2.14.36-3.24.56l-.85.25c-1,.3-2,.54-3,.75l.43,4.07c1-.15,2.09-.27,3.12-.37,1.54-.48,3.08-.93,4.65-1.32Z" transform="translate(-0.04 -0.04)"/><path class="cls-2" d="M244.9,216.33c.47-.73.93-1.49,1.36-2.25a35.11,35.11,0,0,1-7.37,8.38l-2,.26c-3.45,0-5.68-3.41-7.77-5.87-4.51-7.43-9.32-14.51-12.11-22.66-1.13,1.64-2.25,3.24-3.49,4.8a81.78,81.78,0,0,1,6.68,18.76c-1.42,3.86-5.47.56-8.2.85-4.54-1.59-9.08-2.84-12.91-5.12-1.54,1.21-3.12,2.37-4.73,3.46a113.24,113.24,0,0,1,23.92,12.86c2.11,1.72,4.39,3.63,4.28,6.54-1,3.91-5.23,7.41-8.53,10.08,1-.63,1.93-1.26,2.88-1.84l2.57,3.21c-1.34,1-2.63,2-3.9,3.1a109.4,109.4,0,0,1,12.26-5.49c8.77-1.8,15.51,2.3,21.09,8.25,1.72-1.69,3.76-3.71,5.17-5.12-6.84-6.11-11.27-15-7.64-24.55,1.19-2.67,2.46-5.3,3.84-7.89-.76.91-1.5,1.84-2.22,2.82Z" transform="translate(-0.04 -0.04)"/><path class="cls-7" d="M216.92,244.57c-.95.57-1.9,1.21-2.88,1.84l-.77.63c-.8.66-1.63,1.25-2.45,1.82l2,3.59c.92-.56,1.86-1.07,2.81-1.57,1.27-1.06,2.56-2.1,3.91-3.1Z" transform="translate(-0.04 -0.04)"/><path class="cls-2" d="M216.92,244.57c-.95.57-1.9,1.21-2.88,1.84l-.77.63c-.8.66-1.63,1.25-2.45,1.82l2,3.59c.92-.56,1.86-1.07,2.81-1.57,1.27-1.06,2.56-2.1,3.91-3.1Z" transform="translate(-0.04 -0.04)"/><path class="cls-2" d="M263.78,173.83c.13-.73.25-1.46.34-2.2a33.25,33.25,0,0,1-3.38,9.58l-1.76,1c-3.2,1.28-6.54-1-9.41-2.46-4.9-3.6-9.91-7-14.42-10.92-1.41.93-2.81,1.83-4.26,2.72A82.34,82.34,0,0,1,241.66,184c.17,4.13-4.82,2.63-7.24,4-4.74.27-9.36.83-13.72.23-.94,1.7-1.95,3.36-3,5a112.46,112.46,0,0,1,26.81,2.72c2.62.79,5.46,1.69,6.47,4.4.62,4.32-2.44,9.63-4.51,13.46l-.2.35c.81-1.17,1.6-2.34,2.4-3.43l3.6,2c-.68,1.13-1.33,2.32-2,3.49a113.54,113.54,0,0,1,9-9.48c7.42-5,15.21-3.82,22.65-.45.94-2.21,2-4.87,2.81-6.72-8.64-3-16.15-9.5-16.45-19.75.08-2.87.23-5.75.52-8.62-.41,1.29-.79,2.59-1.13,3.91Z" transform="translate(-0.04 -0.04)"/><path class="cls-8" d="M248.66,210.63c-.79,1.1-1.58,2.26-2.4,3.44-.43.77-.89,1.53-1.36,2.25l3.18,2.57c.72-1,1.46-1.89,2.22-2.82.63-1.17,1.28-2.34,2-3.49Z" transform="translate(-0.04 -0.04)"/><path class="cls-2" d="M248.66,210.63c-.79,1.1-1.58,2.26-2.4,3.44-.43.77-.89,1.53-1.36,2.25l3.18,2.57c.72-1,1.46-1.89,2.22-2.82.63-1.17,1.28-2.34,2-3.49Z" transform="translate(-0.04 -0.04)"/><path class="cls-2" d="M273.05,134a160.14,160.14,0,0,1-20.58,21.64c1-.21,2.07-.39,3.1-.56,2.72-.28,5.69-.53,7.66,1.59,2.25,3.75,1.44,9.83,1,14.16a5.27,5.27,0,0,1-.11.81c.39-1.75.73-3.47,1.13-5.1l4.08.43c-.2,1.37-.37,2.74-.5,4.11a114.14,114.14,0,0,1,4.54-11.73c4.93-7.47,12.59-9.34,20.74-9.08V143C286.12,143.46,277.75,141,273.05,134Z" transform="translate(-0.04 -0.04)"/><path class="cls-9" d="M265.25,166.53c-.4,1.64-.74,3.38-1.13,5.1-.1.76-.21,1.49-.34,2.2l3.94,1.13c.34-1.32.73-2.63,1.13-3.91.14-1.37.3-2.74.5-4.11Z" transform="translate(-0.04 -0.04)"/><path class="cls-2" d="M265.25,166.53c-.4,1.64-.74,3.38-1.13,5.1-.1.76-.21,1.49-.34,2.2l3.94,1.13c.34-1.32.73-2.63,1.13-3.91.14-1.37.3-2.74.5-4.11Z" transform="translate(-0.04 -0.04)"/><path class="cls-10" d="M222.66,176.22a81,81,0,0,1-151.18,0c-1.45-.78-2.9-1.57-4.33-2.4a84,84,0,0,0,6.5,14.64,6,6,0,0,0,1.13-.07l-.34-.68.24.12a14.34,14.34,0,0,0,2.81,5.69h-.8c.27.4.53.8.8,1.19.1-.24.2-.47.29-.7a1.72,1.72,0,0,0-.25-.53l.27-.14a14.34,14.34,0,0,0,3.54,5.6h0l-.13-.13c-.11.18-.21.36-.31.54a84.9,84.9,0,0,0,14.44,14.29l1-.48-.56-.49h.27a17.16,17.16,0,0,0,1.35,1.59,14.94,14.94,0,0,0,3.16,2.43l-.21-.16.19-.24A14.11,14.11,0,0,0,106,220.1h0l-.16,0a3.47,3.47,0,0,1-.06.45,83.89,83.89,0,0,0,18.85,7.78c.21-.24.43-.48.63-.72l-.72-.24.26-.09a12.78,12.78,0,0,0,1.86,1,15.37,15.37,0,0,0,4.16,1.08l-.43.39,1.17.22c-.08-.18-.15-.37-.24-.56s6,1,5.89,1l.12.44a84.55,84.55,0,0,0,20.42-.1l.28-.83a41.43,41.43,0,0,0,5.78-.56l-.2.42.78-.16-.39-.38a1.82,1.82,0,0,0-.57,0v-.3a14.31,14.31,0,0,0,6.52-1.13h0l-.17.08.26.33a84.37,84.37,0,0,0,18.85-7.93,3.64,3.64,0,0,0-.06-.82l-.69.34.13-.25a14.1,14.1,0,0,0,2-.64A14.68,14.68,0,0,0,194,216.7v.39l.39-.27-.44-.18a2,2,0,0,0-.52.26l-.15-.27a14.16,14.16,0,0,0,5.59-3.53h0l-.11.13.31.18A84.56,84.56,0,0,0,213.5,199c-.12-.25-.24-.5-.37-.75l-.5.56a1.22,1.22,0,0,1,0-.27,14.44,14.44,0,0,0,1.58-1.35,14.67,14.67,0,0,0,2.59-3.43c0,.14.11.28.16.43l.68-1H217a1.9,1.9,0,0,0-.38.42l-.24-.19a14.14,14.14,0,0,0,3.82-5.4V188h0a.44.44,0,0,1-.06.16l.53.07a83.36,83.36,0,0,0,6.29-14.28C225.57,174.68,224.12,175.48,222.66,176.22Z" transform="translate(-0.04 -0.04)"/><path class="cls-11" d="M100.72,217l-.56.2.61.4V217Z" transform="translate(-0.04 -0.04)"/><path class="cls-4" d="M75.34,189.87a14.1,14.1,0,0,1-.64-2,1.15,1.15,0,0,0-.25-.12l.35.68-1.13.07q1.44,2.56,3.06,5l.79.05A15.21,15.21,0,0,1,75.34,189.87Z" transform="translate(-0.04 -0.04)"/><path class="cls-12" d="M75.34,189.87a14.1,14.1,0,0,1-.64-2,1.15,1.15,0,0,0-.25-.12l.35.68-1.13.07q1.44,2.56,3.06,5l.79.05A15.21,15.21,0,0,1,75.34,189.87Z" transform="translate(-0.04 -0.04)"/><path class="cls-5" d="M100.54,216.8a15.55,15.55,0,0,1-3.16-2.43,15.86,15.86,0,0,1-1.35-1.6h-.27l.56.5-.95.47c1.55,1.21,3.14,2.37,4.77,3.46l.57-.2A1.63,1.63,0,0,0,100.54,216.8Z" transform="translate(-0.04 -0.04)"/><path class="cls-10" d="M100.54,216.8a15.55,15.55,0,0,1-3.16-2.43,15.86,15.86,0,0,1-1.35-1.6h-.27l.56.5-.95.47c1.55,1.21,3.14,2.37,4.77,3.46l.57-.2A1.63,1.63,0,0,0,100.54,216.8Z" transform="translate(-0.04 -0.04)"/><path class="cls-5" d="M81.4,199h0a14.37,14.37,0,0,1-3.54-5.59l-.26.14a2,2,0,0,1,.24.52c-.09.24-.19.47-.28.71,1.09,1.6,2.24,3.17,3.45,4.69l.3-.53Z" transform="translate(-0.04 -0.04)"/><path class="cls-10" d="M81.4,199h0a14.37,14.37,0,0,1-3.54-5.59l-.26.14a2,2,0,0,1,.24.52c-.09.24-.19.47-.28.71,1.09,1.6,2.24,3.17,3.45,4.69l.3-.53Z" transform="translate(-0.04 -0.04)"/><path class="cls-13" d="M126.64,228.34a13.32,13.32,0,0,1-1.86-1,.75.75,0,0,0-.25.09l.72.24c-.21.24-.43.48-.63.72q2.8.78,5.75,1.38l.43-.39A15.3,15.3,0,0,1,126.64,228.34Z" transform="translate(-0.04 -0.04)"/><path class="cls-14" d="M126.64,228.34a13.32,13.32,0,0,1-1.86-1,.75.75,0,0,0-.25.09l.72.24c-.21.24-.43.48-.63.72q2.8.78,5.75,1.38l.43-.39A15.3,15.3,0,0,1,126.64,228.34Z" transform="translate(-0.04 -0.04)"/><path class="cls-13" d="M106,220.22h-.06a14,14,0,0,1-5.4-3.81l-.2.24.22.16.26.16h-.08v.57q2.44,1.62,5,3.06a1.76,1.76,0,0,1,.06-.46Z" transform="translate(-0.04 -0.04)"/><path class="cls-15" d="M106,220.22h-.06a14,14,0,0,1-5.4-3.81l-.2.24.22.16.26.16h-.08v.57q2.44,1.62,5,3.06a1.76,1.76,0,0,1,.06-.46Z" transform="translate(-0.04 -0.04)"/><path class="cls-16" d="M100.72,217h.08l-.26-.15A.65.65,0,0,1,100.72,217Z" transform="translate(-0.04 -0.04)"/><path class="cls-17" d="M100.72,217h.08l-.26-.15A.65.65,0,0,1,100.72,217Z" transform="translate(-0.04 -0.04)"/><path class="cls-18" d="M100.72,217h.08l-.26-.15A.65.65,0,0,1,100.72,217Z" transform="translate(-0.04 -0.04)"/><path class="cls-6" d="M158,230c-.08.27-.19.56-.28.83q3-.37,5.86-1l.2-.42A44.74,44.74,0,0,1,158,230Z" transform="translate(-0.04 -0.04)"/><path class="cls-15" d="M158,230c-.08.27-.19.56-.28.83q3-.37,5.86-1l.2-.42A44.74,44.74,0,0,1,158,230Z" transform="translate(-0.04 -0.04)"/><path class="cls-19" d="M131.31,229.47c.08.18.15.37.23.56,1.91.35,3.83.64,5.78.87a2.4,2.4,0,0,0-.12-.44A54,54,0,0,0,131.31,229.47Z" transform="translate(-0.04 -0.04)"/><path class="cls-20" d="M131.31,229.47c.08.18.15.37.23.56,1.91.35,3.83.64,5.78.87a2.4,2.4,0,0,0-.12-.44A54,54,0,0,0,131.31,229.47Z" transform="translate(-0.04 -0.04)"/><path class="cls-7" d="M190.28,219a15.51,15.51,0,0,1-2,.64l-.13.24.69-.34v.82q2.59-1.48,5.07-3.14v-.4A15,15,0,0,1,190.28,219Z" transform="translate(-0.04 -0.04)"/><path class="cls-12" d="M190.28,219a15.51,15.51,0,0,1-2,.64l-.13.24.69-.34v.82q2.59-1.48,5.07-3.14v-.4A15,15,0,0,1,190.28,219Z" transform="translate(-0.04 -0.04)"/><path class="cls-8" d="M170,227.87h0a14.16,14.16,0,0,1-6.52,1.13v.31a1.75,1.75,0,0,1,.56,0c.14.13.26.26.4.38q2.88-.6,5.68-1.39l-.26-.32Z" transform="translate(-0.04 -0.04)"/><path class="cls-14" d="M170,227.87h0a14.16,14.16,0,0,1-6.52,1.13v.31a1.75,1.75,0,0,1,.56,0c.14.13.26.26.4.38q2.88-.6,5.68-1.39l-.26-.32Z" transform="translate(-0.04 -0.04)"/><path class="cls-21" d="M214.27,197.22a14.55,14.55,0,0,1-1.59,1.35.66.66,0,0,1,0,.28l.5-.57c.13.25.25.5.37.75,1.22-1.55,2.38-3.16,3.49-4.8,0-.14-.11-.28-.15-.43A15.31,15.31,0,0,1,214.27,197.22Z" transform="translate(-0.04 -0.04)"/><path class="cls-10" d="M214.27,197.22a14.55,14.55,0,0,1-1.59,1.35.66.66,0,0,1,0,.28l.5-.57c.13.25.25.5.37.75,1.22-1.55,2.38-3.16,3.49-4.8,0-.14-.11-.28-.15-.43A15.31,15.31,0,0,1,214.27,197.22Z" transform="translate(-0.04 -0.04)"/><path class="cls-8" d="M198.9,213.16h0a13.88,13.88,0,0,1-5.59,3.53l.15.27a2,2,0,0,1,.51-.25l.45.18c1.62-1.1,3.2-2.25,4.74-3.47l-.31-.17S198.86,213.22,198.9,213.16Z" transform="translate(-0.04 -0.04)"/><path class="cls-10" d="M198.9,213.16h0a13.88,13.88,0,0,1-5.59,3.53l.15.27a2,2,0,0,1,.51-.25l.45.18c1.62-1.1,3.2-2.25,4.74-3.47l-.31-.17S198.86,213.22,198.9,213.16Z" transform="translate(-0.04 -0.04)"/><path class="cls-4" d="M220.24,187.91h0V188a14.25,14.25,0,0,1-3.82,5.41l.24.18a1.69,1.69,0,0,1,.38-.42h.69c1.06-1.63,2.06-3.29,3-5a4.78,4.78,0,0,1-.53-.06A.21.21,0,0,1,220.24,187.91Z" transform="translate(-0.04 -0.04)"/><path class="cls-22" d="M220.24,187.91h0V188a14.25,14.25,0,0,1-3.82,5.41l.24.18a1.69,1.69,0,0,1,.38-.42h.69c1.06-1.63,2.06-3.29,3-5a4.78,4.78,0,0,1-.53-.06A.21.21,0,0,1,220.24,187.91Z" transform="translate(-0.04 -0.04)"/><path class="cls-1" d="M59.89,105.72c-2.42,1.31-7.42-.18-7.25,4A82,82,0,0,0,66,124.43a83.05,83.05,0,0,1,7.89-18.9C69.45,104.87,64.73,105.45,59.89,105.72Z" transform="translate(-0.04 -0.04)"/><path class="cls-1" d="M217.42,73.84a81.74,81.74,0,0,0-18.87,6.76A84.25,84.25,0,0,1,213.12,95c2.3-3.84,3.55-8.4,5.15-13C218,79.31,221.28,75.22,217.42,73.84Z" transform="translate(-0.04 -0.04)"/><path class="cls-1" d="M222.39,57.16l-.25-2c-3.08-4.06-7.55-6.72-11.34-9.43-3.24-1.64-6.91-3.14-10.05-2.68-2.72,1-3.61,3.85-4.4,6.47A112.31,112.31,0,0,0,193.64,77l.09.09c8.21-2.78,15.33-7.65,22.8-12.16C219,62.83,222.36,60.61,222.39,57.16Z" transform="translate(-0.04 -0.04)"/><path class="cls-1" d="M65.9,169.76a27.24,27.24,0,0,0-2.32,2c1.19.73,2.38,1.43,3.57,2.13C66.7,172.5,66.29,171.14,65.9,169.76Z" transform="translate(-0.04 -0.04)"/><path class="cls-1" d="M188.41,73.78h0l.17.06c.72-4.5.11-9.31-.16-14.25-1.31-2.41.18-7.41-3.94-7.24A82,82,0,0,0,169.4,66a83.53,83.53,0,0,1,23.35,10.46,14.45,14.45,0,0,0-4.29-2.67Z" transform="translate(-0.04 -0.04)"/><path class="cls-1" d="M237.6,114.43c.78-2.64,5.37-5.11,2.34-7.89a81.85,81.85,0,0,0-19.71-1,83.42,83.42,0,0,1,7.89,18.68C231.6,121.58,234.45,118,237.6,114.43Z" transform="translate(-0.04 -0.04)"/><path class="cls-1" d="M258,111.46c-2.65-1.21-5.28.16-7.69,1.46a112.35,112.35,0,0,0-20.84,17c.07.33.14.66.2,1,7.68,3.71,16,5.29,24.38,7.35,3.23.26,7.17,1.07,9.64-1.34l1.23-1.6c.57-4.13-.18-8.27-.89-12.15C262.86,119.07,261.25,113.87,258,111.46Z" transform="translate(-0.04 -0.04)"/><path class="cls-1" d="M242.53,97.93c3.07-1,7-1.75,8.39-4.92l.54-2c-1.22-4.66-4.07-8.64-6.47-12.39-2.5-3-5.58-6.32-9-7.18-2.9-.11-4.81,2.17-6.54,4.29a112.28,112.28,0,0,0-12.85,24l.51.75C225.67,101,234,99.22,242.53,97.93Z" transform="translate(-0.04 -0.04)"/><path class="cls-1" d="M73.86,76.89a81.86,81.86,0,0,0,6.65,18.72A85.47,85.47,0,0,1,94.9,81.11C91.07,78.86,86.56,77.6,82.06,76,79.34,76.31,75.29,73,73.86,76.89Z" transform="translate(-0.04 -0.04)"/><path class="cls-1" d="M114.75,56.37c-2.63-.79-5.12-5.37-7.89-2.35a81.41,81.41,0,0,0-1,19.78A83.63,83.63,0,0,1,124.74,66C122,62.46,118.35,59.56,114.75,56.37Z" transform="translate(-0.04 -0.04)"/><path class="cls-1" d="M64.94,77.78c-2.08-2.46-4.31-5.83-7.75-5.87l-2,.26C51.47,75,48.93,79,46.45,82.52,44.66,86,42.86,90,43.35,93.38c1,2.72,3.85,3.61,6.47,4.4A113,113,0,0,0,77,100.49l.06-.08C74.26,92.27,69.43,85.22,64.94,77.78Z" transform="translate(-0.04 -0.04)"/><path class="cls-1" d="M98.25,51.43c-1-3.07-1.76-7-4.92-8.4l-2-.52c-4.43,1.16-8.24,3.78-11.82,6.09-3.22,2.62-7.11,6-8.05,9.69-.12,2.9,2.17,4.81,4.28,6.54A113.66,113.66,0,0,0,99.58,77.65l1.15-.78C101.3,68.32,99.55,60,98.25,51.43Z" transform="translate(-0.04 -0.04)"/><path class="cls-1" d="M227,173.86q2-1.14,3.89-2.33c-.81-.77-1.65-1.52-2.51-2.25C228,170.82,227.5,172.35,227,173.86Z" transform="translate(-0.04 -0.04)"/><path class="cls-1" d="M138.66,40.06c.27-3.22,1.1-7.16-1.33-9.64l-1.6-1.24c-4.76-.66-9.5.43-13.87,1.21-3.75,1.16-8,2.74-10.09,5.55-1.21,2.63.17,5.28,1.46,7.69a112.66,112.66,0,0,0,17.2,21l.84-.16C135,56.8,136.6,48.43,138.66,40.06Z" transform="translate(-0.04 -0.04)"/><path class="cls-1" d="M145.61,45.73a81.63,81.63,0,0,0-8.49,17.88,85,85,0,0,1,20.41,0c-1.12-4.32-3.41-8.41-5.5-12.73C149.89,49.22,149.33,44,145.61,45.73Z" transform="translate(-0.04 -0.04)"/><path class="cls-1" d="M180.24,44.44c1.48-2.87,3.73-6.2,2.45-9.42l-1-1.75a28.73,28.73,0,0,0-7.71-3c-.9-.16-1.81-.31-2.73-.4-4.33-.44-10.41-1.24-14.16,1-2.13,2-1.86,4.94-1.59,7.66a112,112,0,0,0,7.84,26c1.21.24,2.41.5,3.6.79a15.11,15.11,0,0,0-3.32-.77C170.25,58.86,175,51.55,180.24,44.44Z" transform="translate(-0.04 -0.04)"/><path class="cls-1" d="M229.73,163.47a55.56,55.56,0,0,0,5.39,5.35,160,160,0,0,0,17.32-13.14,113.18,113.18,0,0,0-22.6,7.1C229.82,163,229.77,163.22,229.73,163.47Z" transform="translate(-0.04 -0.04)"/><path class="cls-1" d="M147.12,66.29a81,81,0,0,0-75.59,110,160.55,160.55,0,0,0,151.18,0,81,81,0,0,0-75.59-110Z" transform="translate(-0.04 -0.04)"/><path class="cls-1" d="M44.74,113.89c-2.87-1.47-6.2-3.72-9.42-2.45l-1.75,1c-2,3.38-2.89,7.24-3.68,10.9-.45,4.3-1.13,10.14,1,13.81,2,2.13,4.94,1.86,7.66,1.59A112.63,112.63,0,0,0,64.4,131l.15-.81C58.88,123.73,51.72,119,44.74,113.89Z" transform="translate(-0.04 -0.04)"/><path class="cls-1" d="M230.72,157c4.23-1.13,8.25-3.38,12.5-5.43,1.73-2.13,6.92-2.67,5.2-6.4a81.91,81.91,0,0,0-17.77-8.48,84.15,84.15,0,0,1,.07,20.31Z" transform="translate(-0.04 -0.04)"/><path class="cls-1" d="M63.5,136.76c-4.25,1.13-8.3,3.38-12.57,5.46-1.73,2.13-6.92,2.67-5.19,6.41a81.85,81.85,0,0,0,17.69,8.44,84.85,84.85,0,0,1,.07-20.27Z" transform="translate(-0.04 -0.04)"/><path class="cls-1" d="M64.54,164.08c-.08-.4-.15-.81-.23-1.21-7-3.38-14.56-5-22.16-6.79a161.51,161.51,0,0,0,17.25,13C61.17,167.47,62.88,165.82,64.54,164.08Z" transform="translate(-0.04 -0.04)"/><path class="cls-2" d="M83.26,45.77c-.83.56-1.65,1.16-2.45,1.81l-1.25,1c3.58-2.31,7.39-4.93,11.82-6.09l2,.52c3.16,1.37,4,5.33,4.92,8.4,1.3,8.54,3,16.9,2.53,25.44q2.48-1.62,5-3.07a81.41,81.41,0,0,1,1-19.78c2.82-3,5.28,1.56,7.88,2.35,3.59,3.19,7.29,6.09,10,9.66,1.88-.52,3.78-1,5.72-1.37a113,113,0,0,1-17.21-21c-1.28-2.41-2.66-5.07-1.45-7.69,2.1-2.82,6.34-4.39,10.08-5.55l-1.4.24-1.13-4c1.9-.47,3.77-1,5.64-1.62a107.06,107.06,0,0,1-14.55.49C101.67,23.82,97,17.45,94.13,9.81c-2.25.89-4.89,2-6.73,2.76,4,8.24,4.7,18.14-2.33,25.6-1.9,1.78-3.83,3.51-5.83,5.19.72-.4,1.44-.8,2.15-1.22Z" transform="translate(-0.04 -0.04)"/><path class="cls-2" d="M49.41,77.31a28.64,28.64,0,0,0-1.57,2.61c-.43.81-.91,1.69-1.4,2.6,2.48-3.56,5-7.54,8.74-10.35l2-.26c3.44,0,5.67,3.38,7.75,5.87,4.51,7.42,9.32,14.49,12.12,22.64Q78.7,98,80.52,95.61a81.27,81.27,0,0,1-6.67-18.72c1.42-3.87,5.46-.57,8.2-.86,4.5,1.57,9,2.82,12.84,5.07q2.28-1.81,4.71-3.46A113.34,113.34,0,0,1,75.77,64.82c-2.12-1.73-4.41-3.64-4.29-6.54.94-3.72,4.83-7.07,8-9.69-.56.38-1.16.74-1.74,1.09l-2.57-3.2c1.34-1,2.63-2,3.9-3.1a109.17,109.17,0,0,1-12.9,5.85C57.39,51,50.66,46.93,45.08,41c-1.72,1.69-3.76,3.71-5.17,5.12,6.84,6.08,11.27,15,7.64,24.55-.89,2-1.83,4-2.81,5.93.48-.6,1-1.21,1.43-1.83Z" transform="translate(-0.04 -0.04)"/><path class="cls-4" d="M77.8,49.69l1.73-1.09,1.26-1c.79-.65,1.62-1.24,2.45-1.81l-2-3.59c-.71.42-1.42.82-2.14,1.22-1.28,1-2.56,2.1-3.91,3.09Z" transform="translate(-0.04 -0.04)"/><path class="cls-2" d="M77.8,49.69l1.73-1.09,1.26-1c.79-.65,1.62-1.24,2.45-1.81l-2-3.59c-.71.42-1.42.82-2.14,1.22-1.28,1-2.56,2.1-3.91,3.09Z" transform="translate(-0.04 -0.04)"/><path class="cls-2" d="M35.32,111.44c3.2-1.27,6.55,1,9.42,2.45,7,5.14,14.14,9.84,19.84,16.28.41-1.93.87-3.85,1.4-5.74a82.15,82.15,0,0,1-13.34-14.78c-.17-4.11,4.83-2.62,7.25-3.94,4.84-.28,9.57-.86,14-.2,1-1.72,2-3.39,3.1-5A113,113,0,0,1,49.8,97.8c-2.62-.8-5.47-1.69-6.47-4.41C42.84,90,44.64,86,46.43,82.53c-.34.5-.69,1-1,1.47l-3.61-2c1.07-1.78,2-3.6,3-5.44A107.63,107.63,0,0,1,35,87c-7.42,5-15.21,3.82-22.64.45-1,2.21-2,4.87-2.82,6.71,8.65,3,16.17,9.51,16.45,19.76-.07,2.72-.21,5.43-.47,8.15.33-1.07.64-2.16.93-3.26L30.41,120c-.19,1-.35,2-.45,3v.35c.79-3.66,1.69-7.5,3.68-10.9Z" transform="translate(-0.04 -0.04)"/><path class="cls-13" d="M45.41,84c.34-.48.69-1,1-1.47.49-.92,1-1.79,1.4-2.6a23.75,23.75,0,0,1,1.57-2.61l-3.19-2.56c-.47.62-.95,1.23-1.43,1.83-.94,1.84-1.92,3.66-3,5.44Z" transform="translate(-0.04 -0.04)"/><path class="cls-2" d="M45.41,84c.34-.48.69-1,1-1.47.49-.92,1-1.79,1.4-2.6a23.75,23.75,0,0,1,1.57-2.61l-3.19-2.56c-.47.62-.95,1.23-1.43,1.83-.94,1.84-1.92,3.66-3,5.44Z" transform="translate(-0.04 -0.04)"/><path class="cls-2" d="M42.12,156.08c7.6,1.81,15.16,3.42,22.16,6.79-.36-1.91-.65-3.85-.88-5.8a82.36,82.36,0,0,1-17.69-8.45c-1.73-3.73,3.46-4.27,5.19-6.4,4.27-2.06,8.32-4.34,12.57-5.46.25-2,.57-3.88.93-5.79a112.65,112.65,0,0,1-25.85,7.77c-2.72.27-5.68.56-7.66-1.6-2.17-3.65-1.48-9.51-1-13.8-.28,1.28-.56,2.55-.83,3.76L25,126.67c.23-1.53.41-3.06.57-4.58A113.19,113.19,0,0,1,21,133.91,162.59,162.59,0,0,0,42.12,156.08Z" transform="translate(-0.04 -0.04)"/><path class="cls-7" d="M30.38,120l-3.94-1.13c-.29,1.13-.6,2.19-.93,3.26-.14,1.53-.33,3.06-.57,4.58l4.09.44c.29-1.21.56-2.48.83-3.77a1,1,0,0,1,0-.34C30,122,30.19,121,30.38,120Z" transform="translate(-0.04 -0.04)"/><path class="cls-2" d="M30.38,120l-3.94-1.13c-.29,1.13-.6,2.19-.93,3.26-.14,1.53-.33,3.06-.57,4.58l4.09.44c.29-1.21.56-2.48.83-3.77a1,1,0,0,1,0-.34C30,122,30.19,121,30.38,120Z" transform="translate(-0.04 -0.04)"/><path class="cls-4" d="M64.54,164.08c-1.66,1.72-3.38,3.38-5.14,5,1.38.9,2.77,1.79,4.18,2.65.74-.7,1.52-1.36,2.32-2C65.41,167.89,64.93,166,64.54,164.08Z" transform="translate(-0.04 -0.04)"/><path class="cls-23" d="M229.73,163.47q-.57,2.94-1.35,5.79c.86.75,1.7,1.5,2.51,2.25,1.44-.88,2.85-1.78,4.26-2.71A54.55,54.55,0,0,1,229.73,163.47Z" transform="translate(-0.04 -0.04)"/><path class="cls-2" d="M268.8,123.58c.1,1,.21,2,.37,3.09l-4.08.43c-.2-1-.44-2-.73-2.95l-.3-1c.72,3.88,1.48,8,.9,12.14l-1.23,1.61c-2.47,2.4-6.42,1.59-9.64,1.33-8.35-2.06-16.7-3.63-24.38-7.35.37,1.92.69,3.86.94,5.82a82.05,82.05,0,0,1,17.77,8.52c1.72,3.73-3.47,4.27-5.2,6.4-4.25,2-8.27,4.31-12.5,5.43-.21,1.94-.51,3.86-.86,5.75a112.6,112.6,0,0,1,22.61-7.09,161.76,161.76,0,0,0,20.58-21.61,20.08,20.08,0,0,1-1.69-3C270.43,128.57,269.58,126.1,268.8,123.58Z" transform="translate(-0.04 -0.04)"/><path class="cls-2" d="M248.53,83.22c-.56-.82-1.16-1.65-1.8-2.45s-1.13-1.38-1.74-2.13c2.4,3.77,5.25,7.75,6.47,12.4L250.92,93c-1.36,3.17-5.32,3.94-8.39,4.92-8.52,1.3-16.86,3-25.4,2.54,1.09,1.63,2.13,3.29,3.11,5a82.44,82.44,0,0,1,19.72,1c3,2.82-1.56,5.27-2.35,7.89-3.15,3.51-6,7.15-9.48,9.81q.8,2.82,1.4,5.67a112.35,112.35,0,0,1,20.84-17c2.4-1.3,5.06-2.67,7.68-1.46,3.23,2.41,4.83,7.64,6,11.7q-.3-1.59-.57-3.12l4-1.16q.6,2.39,1.34,4.71a108.93,108.93,0,0,1-.39-13.52c1.69-8.75,8-13.39,15.69-16.27-.89-2.25-2-4.89-2.76-6.75-8.23,4-18.14,4.7-25.59-2.34-1.59-1.67-3.13-3.4-4.64-5.16.33.6.67,1.19,1,1.78Z" transform="translate(-0.04 -0.04)"/><path class="cls-24" d="M263.52,120c.16,1,.35,2.06.56,3.12l.3,1c.29,1,.52,2,.73,3l4.07-.43c-.15-1-.26-2.05-.36-3.09q-.74-2.31-1.34-4.7Z" transform="translate(-0.04 -0.04)"/><path class="cls-2" d="M263.52,120c.16,1,.35,2.06.56,3.12l.3,1c.29,1,.52,2,.73,3l4.07-.43c-.15-1-.26-2.05-.36-3.09q-.74-2.31-1.34-4.7Z" transform="translate(-0.04 -0.04)"/><path class="cls-2" d="M216.82,49.11a29.91,29.91,0,0,0-2.6-1.57c-1.05-.56-2.21-1.2-3.42-1.82,3.79,2.71,8.26,5.37,11.34,9.43l.25,2c0,3.45-3.37,5.67-5.86,7.76-7.47,4.5-14.59,9.38-22.8,12.16l.07.08q2.43,1.62,4.75,3.42a81.74,81.74,0,0,1,18.87-6.76c3.86,1.42.56,5.46.86,8.2-1.6,4.55-2.85,9.1-5.15,12.95,1.22,1.53,2.38,3.11,3.49,4.72a113.09,113.09,0,0,1,12.85-24c1.73-2.11,3.64-4.39,6.54-4.28,3.38.86,6.48,4.16,9,7.17l-.72-1.12,3.2-2.58c1.17,1.57,2.39,3.08,3.64,4.56a110.58,110.58,0,0,1-6-13.21c-1.79-8.78,2.3-15.51,8.25-21.1-1.69-1.72-3.71-3.75-5.12-5.17-6.09,6.84-15,11.26-24.55,7.65-1.83-.83-3.65-1.69-5.44-2.58l1.18.91Z" transform="translate(-0.04 -0.04)"/><path class="cls-25" d="M244.27,77.51c.23.38.47.76.72,1.12l1.74,2.13c.64.8,1.24,1.62,1.8,2.45l3.6-2c-.35-.56-.68-1.19-1-1.78-1.25-1.48-2.47-3-3.64-4.57Z" transform="translate(-0.04 -0.04)"/><path class="cls-2" d="M244.27,77.51c.23.38.47.76.72,1.12l1.74,2.13c.64.8,1.24,1.62,1.8,2.45l3.6-2c-.35-.56-.68-1.19-1-1.78-1.25-1.48-2.47-3-3.64-4.57Z" transform="translate(-0.04 -0.04)"/><path class="cls-2" d="M174.25,30.37H174a28.73,28.73,0,0,1,7.71,2.95l1,1.75c1.28,3.2-1,6.55-2.45,9.42-5.23,7.11-10,14.42-16.63,20.17a15.11,15.11,0,0,1,3.32.77c.83.2,1.66.41,2.48.64a82,82,0,0,1,15.08-13.68c4.1-.17,2.61,4.83,3.94,7.24.27,4.94.89,9.73.16,14.25l-.16-.06h.05a14.92,14.92,0,0,1,4.29,2.67l.94.62h0l-.09-.09a112.44,112.44,0,0,1,2.71-27.49c.79-2.61,1.69-5.45,4.41-6.46,3.13-.46,6.8,1,10,2.68l-.48-.34,2-3.61C214.19,43,216.19,44,218.18,45a105.1,105.1,0,0,1-11.06-10.35c-5-7.43-3.82-15.21-.45-22.65-2.2-.95-4.87-2-6.71-2.81-3,8.67-9.51,16.17-19.76,16.47-3.12-.09-6.25-.26-9.37-.59,1.5.49,3,.94,4.57,1.34Z" transform="translate(-0.04 -0.04)"/><path class="cls-6" d="M210.32,45.38l.48.34c1.21.62,2.37,1.26,3.42,1.82.89.49,1.76,1,2.6,1.57l2.57-3.19c-.4-.3-.79-.6-1.17-.91-2-1-4-2.08-5.93-3.24Z" transform="translate(-0.04 -0.04)"/><path class="cls-2" d="M210.32,45.38l.48.34c1.21.62,2.37,1.26,3.42,1.82.89.49,1.76,1,2.6,1.57l2.57-3.19c-.4-.3-.79-.6-1.17-.91-2-1-4-2.08-5.93-3.24Z" transform="translate(-0.04 -0.04)"/><path class="cls-26" d="M193.73,77.08h0l.1.06Z" transform="translate(-0.04 -0.04)"/><path class="cls-27" d="M193.73,77.08h0l.1.06Z" transform="translate(-0.04 -0.04)"/><path class="cls-2" d="M127.43,28.87c-1,.21-2,.44-3,.73l-2.61.79c4.37-.78,9.11-1.87,13.87-1.21l1.6,1.24c2.43,2.48,1.6,6.42,1.33,9.64-2.06,8.37-3.64,16.74-7.39,24.44,1.93-.38,3.87-.67,5.83-.89a81.7,81.7,0,0,1,8.51-17.88c3.74-1.73,4.27,3.46,6.4,5.2,2.09,4.32,4.4,8.41,5.5,12.73,2,.25,3.9.55,5.82.93a112,112,0,0,1-7.84-26c-.27-2.72-.56-5.69,1.59-7.66,3.75-2.25,9.83-1.43,14.16-1,.92.09,1.83.24,2.73.4-2.37-.59-4.74-1-7-1.56l.45-4.09c1.12.16,2.25.31,3.38.43-3.76-1.26-7.46-2.7-11.07-4.32-7.48-4.94-9.35-12.6-9.09-20.75h-7.27c.53,9.13-2.61,18.58-12,22.75-2.16.82-4.34,1.6-6.54,2.31l2.07-.26Z" transform="translate(-0.04 -0.04)"/><path class="cls-13" d="M120.45,30.64l1.41-.23c.91-.28,1.79-.57,2.61-.79,1-.29,2-.53,3-.73L127,24.81c-.69.1-1.38.19-2.08.26-1.84.6-3.71,1.13-5.63,1.63Z" transform="translate(-0.04 -0.04)"/><path class="cls-2" d="M120.45,30.64l1.41-.23c.91-.28,1.79-.57,2.61-.79,1-.29,2-.53,3-.73L127,24.81c-.69.1-1.38.19-2.08.26-1.84.6-3.71,1.13-5.63,1.63Z" transform="translate(-0.04 -0.04)"/><path class="cls-28" d="M167,28.76c2.21.53,4.58,1,7,1.56h.28l1.15-3.95c-1.55-.4-3.07-.85-4.57-1.34-1.13-.12-2.25-.26-3.38-.42Z" transform="translate(-0.04 -0.04)"/><path class="cls-2" d="M167,28.76c2.21.53,4.58,1,7,1.56h.28l1.15-3.95c-1.55-.4-3.07-.85-4.57-1.34-1.13-.12-2.25-.26-3.38-.42Z" transform="translate(-0.04 -0.04)"/><path class="cls-29" d="M65,163.57v-.35c-.25-.13-.49-.23-.73-.35.08.4.15.81.23,1.21Z" transform="translate(-0.04 -0.04)"/><path class="cls-30" d="M77.06,100.42l-.06.08h.12A.16.16,0,0,0,77.06,100.42Z" transform="translate(-0.04 -0.04)"/><path class="cls-31" d="M216.58,100.44h.56l-.51-.76c-.06.14-.12.28-.17.42A2,2,0,0,0,216.58,100.44Z" transform="translate(-0.04 -0.04)"/><path class="cls-32" d="M131,65l.23-.49-.84.16.32.32Z" transform="translate(-0.04 -0.04)"/><path class="cls-10" d="M64.47,156.68c0,.07.11.13.17.2A14.26,14.26,0,0,0,65,163h.3a14.24,14.24,0,0,0,1.12,6.51v0h0a1.11,1.11,0,0,0-.07-.16c-.16.11-.32.24-.47.36.38,1.39.8,2.75,1.25,4.1,1.43.83,2.87,1.62,4.33,2.4a80.95,80.95,0,1,1,151.18,0c1.46-.78,2.9-1.57,4.33-2.4.51-1.5,1-3,1.38-4.6l-.69-.6-.24.72a2.41,2.41,0,0,1-.08-.25,14.69,14.69,0,0,0,2-6l.33.36c0-.23.09-.47.13-.7l-.72.31a1.67,1.67,0,0,0-.19.57l-.29-.09a14,14,0,0,0,1.45-6.46h0v.1a2.75,2.75,0,0,0,.61-.16,84.66,84.66,0,0,0-.08-20.31l-1-.34,0,.76-.17-.21a14.56,14.56,0,0,0-.43-6.33l.62.3c-.06-.34-.13-.67-.2-1l-.52.52a1.82,1.82,0,0,0,0,.57h-.29a14.44,14.44,0,0,0-1.13-6.52,0,0,0,0,0,0,0h0a.77.77,0,0,1,.07.16c.17-.12.32-.25.48-.38a83.76,83.76,0,0,0-7.88-18.73,5.38,5.38,0,0,0-1,.06l.33.69-.24-.13a13.83,13.83,0,0,0-2.65-5.46l-.23.13a14.2,14.2,0,0,0-3.61-5.57h0l.14.12.15-.27a84.72,84.72,0,0,0-14.59-14.42l-.63.31.56.51h-.33a14.55,14.55,0,0,0-1.35-1.59,15.37,15.37,0,0,0-2.89-2.25l-.1.12c-.11-.13-.23-.26-.35-.38l-.08-.06h0c-.23-.23-.47-.47-.72-.69a83.76,83.76,0,0,0-23.34-10.46l-.26.3.73.24a.79.79,0,0,0-.26.08,16.64,16.64,0,0,0-1.86-1l-.83-.3c-1.2-.29-2.4-.55-3.61-.79.07.14.12.28.18.41a1.56,1.56,0,0,0,.56.2l-.08.29a14.18,14.18,0,0,0-6.46-1.46h.12a1.69,1.69,0,0,0-.1-.35A84.55,84.55,0,0,0,137,63.73c-.1.3-.21.6-.3.9l.76-.06-.21.18a14.09,14.09,0,0,0-2.05-.31,15.43,15.43,0,0,0-3.94.51v.28a14.21,14.21,0,0,0-6.53,1.12h0l.16-.08-.22-.29a83.89,83.89,0,0,0-18.89,7.77,5.82,5.82,0,0,0,.06,1l.68-.34-.12.24a14.67,14.67,0,0,0-5.69,2.81,2.62,2.62,0,0,1,0-.56l-1.16.77.53.21a2.08,2.08,0,0,0,.52-.25l.15.26a14.24,14.24,0,0,0-5.6,3.55h0l.11-.13-.37-.22A84.44,84.44,0,0,0,80.5,95.6l.39.78.5-.56a1.22,1.22,0,0,1,0,.27,17.16,17.16,0,0,0-1.59,1.35,15.21,15.21,0,0,0-2.11,2.63l.23.18a14.25,14.25,0,0,0-3.82,5.41v.06h0a.19.19,0,0,1,.06-.17c.06,0-.15,0-.23,0A84,84,0,0,0,66,124.45l.64.57.24-.73a1.12,1.12,0,0,0,.08.26,15.53,15.53,0,0,0-1,1.89,15.3,15.3,0,0,0-1.08,4.15l-.32-.36a4.29,4.29,0,0,1-.15.81c.19-.09.39-.17.56-.26a1.56,1.56,0,0,0,.2-.56l.28.08A14.3,14.3,0,0,0,64,136.76v.06h0v-.18a2.51,2.51,0,0,0-.52.14,84.93,84.93,0,0,0-.08,20.28l1.09.36Z" transform="translate(-0.04 -0.04)"/><path class="cls-4" d="M100.75,77.45a15.62,15.62,0,0,1,3.7-2.17,14.06,14.06,0,0,1,2-.63.58.58,0,0,1,.12-.25l-.68.35a5,5,0,0,0-.06-1c-1.72,1-3.4,2-5,3.07C100.77,77.07,100.77,77.22,100.75,77.45Z" transform="translate(-0.04 -0.04)"/><path class="cls-10" d="M100.75,77.45a15.62,15.62,0,0,1,3.7-2.17,14.06,14.06,0,0,1,2-.63.58.58,0,0,1,.12-.25l-.68.35a5,5,0,0,0-.06-1c-1.72,1-3.4,2-5,3.07C100.77,77.07,100.77,77.22,100.75,77.45Z" transform="translate(-0.04 -0.04)"/><path class="cls-6" d="M131,65a1.41,1.41,0,0,1-.29,0l-.32-.31c-1.94.37-3.84.83-5.72,1.36l.23.29-.17.08h0a14.33,14.33,0,0,1,6.53-1.13V65a.44.44,0,0,0-.32.09Z" transform="translate(-0.04 -0.04)"/><path class="cls-33" d="M131,65a1.41,1.41,0,0,1-.29,0l-.32-.31c-1.94.37-3.84.83-5.72,1.36l.23.29-.17.08h0a14.33,14.33,0,0,1,6.53-1.13V65a.44.44,0,0,0-.32.09Z" transform="translate(-0.04 -0.04)"/><path class="cls-13" d="M77.12,100.49h.21a1.49,1.49,0,0,0,.39-.44h0a15.21,15.21,0,0,1,2.11-2.63,15.65,15.65,0,0,1,1.59-1.34,1.31,1.31,0,0,1,0-.28l-.5.56c-.14-.26-.26-.52-.39-.78-1.21,1.56-2.37,3.17-3.48,4.81A.36.36,0,0,1,77.12,100.49Z" transform="translate(-0.04 -0.04)"/><path class="cls-10" d="M77.12,100.49h.21a1.49,1.49,0,0,0,.39-.44h0a15.21,15.21,0,0,1,2.11-2.63,15.65,15.65,0,0,1,1.59-1.34,1.31,1.31,0,0,1,0-.28l-.5.56c-.14-.26-.26-.52-.39-.78-1.21,1.56-2.37,3.17-3.48,4.81A.36.36,0,0,1,77.12,100.49Z" transform="translate(-0.04 -0.04)"/><path class="cls-13" d="M95.29,81.34l-.12.13h0a14.24,14.24,0,0,1,5.6-3.55l-.15-.26a2.08,2.08,0,0,1-.52.25l-.53-.21C98,78.8,96.38,80,94.86,81.16Z" transform="translate(-0.04 -0.04)"/><path class="cls-10" d="M95.29,81.34l-.12.13h0a14.24,14.24,0,0,1,5.6-3.55l-.15-.26a2.08,2.08,0,0,1-.52.25l-.53-.21C98,78.8,96.38,80,94.86,81.16Z" transform="translate(-0.04 -0.04)"/><path class="cls-7" d="M64.91,130.53A14.78,14.78,0,0,1,66,126.4a14.58,14.58,0,0,1,1-1.87,1,1,0,0,0-.08-.25l-.25.72-.63-.57q-.8,2.82-1.4,5.75Z" transform="translate(-0.04 -0.04)"/><path class="cls-12" d="M64.91,130.53A14.78,14.78,0,0,1,66,126.4a14.58,14.58,0,0,1,1-1.87,1,1,0,0,0-.08-.25l-.25.72-.63-.57q-.8,2.82-1.4,5.75Z" transform="translate(-0.04 -0.04)"/><path class="cls-28" d="M77.12,100.49H77c-1.09,1.63-2.12,3.29-3.1,5h.23c.07,0,0,.12-.06.17h0m0,0a14.22,14.22,0,0,1,3.81-5.41L77.7,100c-.17.27-.33.53-.48.8a1.19,1.19,0,0,0-.1-.32Z" transform="translate(-0.04 -0.04)"/><path class="cls-10" d="M77.12,100.49H77c-1.09,1.63-2.12,3.29-3.1,5h.23c.07,0,0,.12-.06.17h0m0,0a14.22,14.22,0,0,1,3.81-5.41L77.7,100c-.17.27-.33.53-.48.8a1.19,1.19,0,0,0-.1-.32Z" transform="translate(-0.04 -0.04)"/><path class="cls-6" d="M77.29,100.49h-.17a1.49,1.49,0,0,0,.13.37,6.52,6.52,0,0,1,.48-.8h0A1.63,1.63,0,0,1,77.29,100.49Z" transform="translate(-0.04 -0.04)"/><path class="cls-6" d="M77.29,100.49h-.17a1.49,1.49,0,0,0,.13.37,6.52,6.52,0,0,1,.48-.8h0A1.63,1.63,0,0,1,77.29,100.49Z" transform="translate(-0.04 -0.04)"/><path class="cls-34" d="M77.29,100.49h-.17a1.49,1.49,0,0,0,.13.37,6.52,6.52,0,0,1,.48-.8h0A1.63,1.63,0,0,1,77.29,100.49Z" transform="translate(-0.04 -0.04)"/><path class="cls-3" d="M64,136.8h0v-.06a14.11,14.11,0,0,1,1.46-6.45l-.29-.09a1.69,1.69,0,0,1-.2.57c-.19.09-.39.16-.56.25q-.56,2.85-.93,5.78l.53-.14A.66.66,0,0,0,64,136.8Z" transform="translate(-0.04 -0.04)"/><path class="cls-12" d="M64,136.8h0v-.06a14.11,14.11,0,0,1,1.46-6.45l-.29-.09a1.69,1.69,0,0,1-.2.57c-.19.09-.39.16-.56.25q-.56,2.85-.93,5.78l.53-.14A.66.66,0,0,0,64,136.8Z" transform="translate(-0.04 -0.04)"/><path class="cls-35" d="M65,163a14.26,14.26,0,0,1-.37-6.13c-.06-.07-.12-.13-.17-.2l0,.76-1.09-.37c.23,2,.52,3.89.88,5.8l.73.34Z" transform="translate(-0.04 -0.04)"/><path class="cls-14" d="M65,163a14.26,14.26,0,0,1-.37-6.13c-.06-.07-.12-.13-.17-.2l0,.76-1.09-.37c.23,2,.52,3.89.88,5.8l.73.34Z" transform="translate(-0.04 -0.04)"/><path class="cls-4" d="M66.45,169.55h0v-.05A14.24,14.24,0,0,1,65.32,163H65v.22h0a2.16,2.16,0,0,1,0,.36l-.49.5c.39,1.92.85,3.81,1.36,5.68.16-.12.31-.25.48-.37C66.4,169.44,66.42,169.5,66.45,169.55Z" transform="translate(-0.04 -0.04)"/><path class="cls-12" d="M66.45,169.55h0v-.05A14.24,14.24,0,0,1,65.32,163H65v.22h0a2.16,2.16,0,0,1,0,.36l-.49.5c.39,1.92.85,3.81,1.36,5.68.16-.12.31-.25.48-.37C66.4,169.44,66.42,169.5,66.45,169.55Z" transform="translate(-0.04 -0.04)"/><path class="cls-36" d="M65,163a.67.67,0,0,0,0,.2h0Z" transform="translate(-0.04 -0.04)"/><path class="cls-3" d="M65,163a.67.67,0,0,0,0,.2h0Z" transform="translate(-0.04 -0.04)"/><path class="cls-37" d="M65,163a.67.67,0,0,0,0,.2h0Z" transform="translate(-0.04 -0.04)"/><path class="cls-38" d="M228.32,167.22a14.8,14.8,0,0,1-.95,1.86.79.79,0,0,0,.08.26l.24-.72c.24.19.46.4.69.6.51-1.91,1-3.83,1.35-5.79l-.33-.36A14.85,14.85,0,0,1,228.32,167.22Z" transform="translate(-0.04 -0.04)"/><path class="cls-39" d="M228.32,167.22a14.8,14.8,0,0,1-.95,1.86.79.79,0,0,0,.08.26l.24-.72c.24.19.46.4.69.6.51-1.91,1-3.83,1.35-5.79l-.33-.36A14.85,14.85,0,0,1,228.32,167.22Z" transform="translate(-0.04 -0.04)"/><path class="cls-24" d="M230.12,157h0v.06a14.18,14.18,0,0,1-1.47,6.49l.3.09a1.38,1.38,0,0,1,.19-.56l.72-.31c.35-1.9.65-3.82.86-5.75l-.6.16Z" transform="translate(-0.04 -0.04)"/><path class="cls-10" d="M230.12,157h0v.06a14.18,14.18,0,0,1-1.47,6.49l.3.09a1.38,1.38,0,0,1,.19-.56l.72-.31c.35-1.9.65-3.82.86-5.75l-.6.16Z" transform="translate(-0.04 -0.04)"/><path class="cls-24" d="M229.68,134.84a14.61,14.61,0,0,1-.17,2.09l.18.21-.05-.77,1,.34c-.25-2-.57-3.91-.94-5.82l-.62-.3A15.26,15.26,0,0,1,229.68,134.84Z" transform="translate(-0.04 -0.04)"/><path class="cls-14" d="M229.68,134.84a14.61,14.61,0,0,1-.17,2.09l.18.21-.05-.77,1,.34c-.25-2-.57-3.91-.94-5.82l-.62-.3A15.26,15.26,0,0,1,229.68,134.84Z" transform="translate(-0.04 -0.04)"/><path class="cls-40" d="M216.58,100.44l.11.21h0a16,16,0,0,1,2,3.47,17.19,17.19,0,0,1,.63,2l.24.13-.33-.69,1-.06q-1.47-2.58-3.12-5Z" transform="translate(-0.04 -0.04)"/><path class="cls-41" d="M216.58,100.44l.11.21h0a16,16,0,0,1,2,3.47,17.19,17.19,0,0,1,.63,2l.24.13-.33-.69,1-.06q-1.47-2.58-3.12-5Z" transform="translate(-0.04 -0.04)"/><path class="cls-25" d="M227.62,124.62a.87.87,0,0,0-.07-.17h0a14.44,14.44,0,0,1,1.13,6.52H229a1.75,1.75,0,0,1,0-.56l.52-.53c-.4-1.91-.87-3.8-1.39-5.67A2.73,2.73,0,0,1,227.62,124.62Z" transform="translate(-0.04 -0.04)"/><path class="cls-34" d="M227.62,124.62a.87.87,0,0,0-.07-.17h0a14.44,14.44,0,0,1,1.13,6.52H229a1.75,1.75,0,0,1,0-.56l.52-.53c-.4-1.91-.87-3.8-1.39-5.67A2.73,2.73,0,0,1,227.62,124.62Z" transform="translate(-0.04 -0.04)"/><path class="cls-42" d="M193.44,77.22l.08.06v-.07Z" transform="translate(-0.04 -0.04)"/><path class="cls-43" d="M193.44,77.22l.08.06v-.07Z" transform="translate(-0.04 -0.04)"/><path class="cls-6" d="M216.58,100.44a1.2,1.2,0,0,1-.13-.31c.05-.14.11-.28.17-.42-1.13-1.61-2.26-3.18-3.49-4.72,0,.09-.09.18-.15.27l-.13-.12h0a14.21,14.21,0,0,1,3.55,5.59l.23-.13-.16-.23Z" transform="translate(-0.04 -0.04)"/><path class="cls-10" d="M216.58,100.44a1.2,1.2,0,0,1-.13-.31c.05-.14.11-.28.17-.42-1.13-1.61-2.26-3.18-3.49-4.72,0,.09-.09.18-.15.27l-.13-.12h0a14.21,14.21,0,0,1,3.55,5.59l.23-.13-.16-.23Z" transform="translate(-0.04 -0.04)"/><path class="cls-6" d="M194.12,77.39l-.1.12a15,15,0,0,1,2.89,2.25,14.55,14.55,0,0,1,1.35,1.59h.27l-.56-.51.63-.31q-2.31-1.78-4.75-3.42A1.79,1.79,0,0,0,194.12,77.39Z" transform="translate(-0.04 -0.04)"/><path class="cls-12" d="M194.12,77.39l-.1.12a15,15,0,0,1,2.89,2.25,14.55,14.55,0,0,1,1.35,1.59h.27l-.56-.51.63-.31q-2.31-1.78-4.75-3.42A1.79,1.79,0,0,0,194.12,77.39Z" transform="translate(-0.04 -0.04)"/><path class="cls-44" d="M216.58,100.44h-.07l.16.23h0A.92.92,0,0,0,216.58,100.44Z" transform="translate(-0.04 -0.04)"/><path class="cls-28" d="M216.58,100.44h-.07l.16.23h0A.92.92,0,0,0,216.58,100.44Z" transform="translate(-0.04 -0.04)"/><path class="cls-45" d="M216.58,100.44h-.07l.16.23h0A.92.92,0,0,0,216.58,100.44Z" transform="translate(-0.04 -0.04)"/><path class="cls-28" d="M167.76,65.68a16.64,16.64,0,0,1,1.86,1l.26-.08-.73-.25.26-.29c-.82-.23-1.65-.44-2.48-.64A4,4,0,0,1,167.76,65.68Z" transform="translate(-0.04 -0.04)"/><path class="cls-12" d="M167.76,65.68a16.64,16.64,0,0,1,1.86,1l.26-.08-.73-.25.26-.29c-.82-.23-1.65-.44-2.48-.64A4,4,0,0,1,167.76,65.68Z" transform="translate(-0.04 -0.04)"/><path class="cls-6" d="M193.88,77.62l.09-.12-.45-.26A4.27,4.27,0,0,1,193.88,77.62Z" transform="translate(-0.04 -0.04)"/><path class="cls-33" d="M193.88,77.62l.09-.12-.45-.26A4.27,4.27,0,0,1,193.88,77.62Z" transform="translate(-0.04 -0.04)"/><path class="cls-46" d="M192.76,76.47l.71.7.23-.08Z" transform="translate(-0.04 -0.04)"/><path class="cls-47" d="M192.76,76.47l.71.7.23-.08Z" transform="translate(-0.04 -0.04)"/><path class="cls-25" d="M193.83,77.16l-.1-.07-.23.08.05.07.45.26.1-.11A2,2,0,0,1,193.83,77.16Z" transform="translate(-0.04 -0.04)"/><path class="cls-6" d="M193.83,77.16l-.1-.07-.23.08.05.07.45.26.1-.11A2,2,0,0,1,193.83,77.16Z" transform="translate(-0.04 -0.04)"/><path class="cls-33" d="M193.83,77.16l-.1-.07-.23.08.05.07.45.26.1-.11A2,2,0,0,1,193.83,77.16Z" transform="translate(-0.04 -0.04)"/><path class="cls-28" d="M157.61,64h-.11A14.1,14.1,0,0,1,164,65.49l.09-.29a1.56,1.56,0,0,1-.56-.2c-.07-.13-.12-.27-.18-.41-1.91-.38-3.85-.68-5.81-.93C157.54,63.78,157.58,63.87,157.61,64Z" transform="translate(-0.04 -0.04)"/><path class="cls-10" d="M157.61,64h-.11A14.1,14.1,0,0,1,164,65.49l.09-.29a1.56,1.56,0,0,1-.56-.2c-.07-.13-.12-.27-.18-.41-1.91-.38-3.85-.68-5.81-.93C157.54,63.78,157.58,63.87,157.61,64Z" transform="translate(-0.04 -0.04)"/><path class="cls-28" d="M131,65h.29a16.36,16.36,0,0,1,4-.5,14.46,14.46,0,0,1,2.08.16l.21-.17-.77.06c.1-.31.21-.61.31-.91q-2.94.34-5.83.89Z" transform="translate(-0.04 -0.04)"/><path class="cls-12" d="M131,65h.29a16.36,16.36,0,0,1,4-.5,14.46,14.46,0,0,1,2.08.16l.21-.17-.77.06c.1-.31.21-.61.31-.91q-2.94.34-5.83.89Z" transform="translate(-0.04 -0.04)"/><path class="cls-48" d="M131,65v.06l.32-.08h0Z" transform="translate(-0.04 -0.04)"/><path class="cls-49" d="M131,65v.06l.32-.08h0Z" transform="translate(-0.04 -0.04)"/><path class="cls-50" d="M131,65v.06l.32-.08h0Z" transform="translate(-0.04 -0.04)"/><path class="cls-51" d="M247.44,147.22A100.36,100.36,0,1,1,147.06,46.88h.06A100.38,100.38,0,0,1,247.44,147.22Z" transform="translate(-0.04 -0.04)"/><path class="cls-1" d="M184.31,100.64c2.25-.3,4.5-3.69,4.5-3.69s3.38-4.86,11-4.42,9.41,3,9.81,4.58,2.95,2.06,6,1.91a5.77,5.77,0,0,1,4.78,2.36s2.67.44,4.64.88,0-1.77-.28-2.65a7.49,7.49,0,0,1-.42-3.69c.28-1.32,5.34,1.19,7.45,1.63s1.41-1.77,1.41-1.77l1.4-.3L230.41,89c-.1-.13-.19-.26-.28-.4l-.69.72-2-3.53-1.69-.15-1.21,1.61-1.27-1.47-2-.57-2.7-2.09-2.11-2.5-1-.57,1,2.65L219,85a12.46,12.46,0,0,1,1,2.65c0,.6-2.39-.29-3-.43a26.1,26.1,0,0,1-3.23-2.51l-2.4-2.51L208,79.73s-6.75-4.28-7.59-4.28a71.18,71.18,0,0,1-6.89-2.06l2.11,2.06,4.64,2.65s4.36,1.48,6,2.22a8.7,8.7,0,0,1,2.82,2.06l-.84.44,1.26,3.24-2.67-2.94s-3.94-2.51-6.33-2.51-5.63-2.06-6.47-2.35-3.51-2.36-3.51-1.48-2.54.88-4.93,1.92-.28,3.68-.28,3.68l-1.69,1.91L183,87l1,3.24.57,3-.41,3.08s-.14,1-2.1,1.18a4.31,4.31,0,0,0-3.52,2.65.14.14,0,0,1,0,.09c.25.12.89.17.74.34a5.16,5.16,0,0,0-.43.61h0C179.81,100.79,182.06,100.94,184.31,100.64Z" transform="translate(-0.04 -0.04)"/><path class="cls-1" d="M151.12,153.22a5.91,5.91,0,0,1-1-1,8.6,8.6,0,0,1-.87-2.13,11.3,11.3,0,0,0-2.53-7.79,1.33,1.33,0,0,0-1.19-.57L143.14,139a3.54,3.54,0,0,0-1.54.56,7.82,7.82,0,0,1-2.36,1.39s1.8,2,2.91,3.34,1.39,6.41,1.39,6.41l2.79,1.39s1,2.36,1.53,2.5,3.06-.41,3.75-.41a8.7,8.7,0,0,1,2.6,1.35c.26,0,.46,0,.57-.18h0Z" transform="translate(-0.04 -0.04)"/><path class="cls-1" d="M230.12,88.56h0l.28.39Z" transform="translate(-0.04 -0.04)"/><path class="cls-1" d="M178.51,100.14c-.09.13-.29.18-.57.17l.47.32-2,.46,1,2.5s.41-2.19,1.39-2.5a5.16,5.16,0,0,1,.43-.61C179.39,100.31,178.75,100.22,178.51,100.14Z" transform="translate(-0.04 -0.04)"/><path class="cls-1" d="M178,100.31a8.05,8.05,0,0,1-2.1-.56l.56,1.33,2-.46Z" transform="translate(-0.04 -0.04)"/><path class="cls-52" d="M248.22,147.11A101.2,101.2,0,0,1,147,248.31h0a101.21,101.21,0,1,1,101.2-101.22Z" transform="translate(-0.04 -0.04)"/><path class="cls-53" d="M98.27,143.6c2.26.36,3.7-.8,5.29-1.45l3-1.56a2,2,0,0,1,2.36.49,2,2,0,0,0,2.36-.82,12,12,0,0,1,2-1.76,12.14,12.14,0,0,0,2.17-.26,12,12,0,0,1,6.2,3.38c3,1.08,5.4,3,8.14,4.58,2.66.79,5.25,1.74,6.78,3.56.53,1.72,2.19,2.26,4.23,2.26a29.53,29.53,0,0,1,4.7.2c1.29.56,2.25,1.55,3.83,2.13a18.3,18.3,0,0,1,3.37.44,15,15,0,0,1,4.69,4.27,2.59,2.59,0,0,1-.08,1.65c-2,2.67-2.88,6.34-3.81,10.1a16.45,16.45,0,0,1-1.9,4.87,9.56,9.56,0,0,1-2.93,2.36c-1.55,1.13-3.46,1.91-4.55,3.25A77.64,77.64,0,0,0,140.47,193c-.24,1-1.42,1.46-2.65,1.38a5.31,5.31,0,0,0-4.64,4.43,3.57,3.57,0,0,1-2.68,2.6,2.25,2.25,0,0,0-1.5,2.21,3.94,3.94,0,0,1-.88,2.7,1.67,1.67,0,0,0-.38,1.74,13,13,0,0,1,2.11,5.21c-.6,1.59.71,2.56,1.47,3.38a2.44,2.44,0,0,1,.53,2.52,4,4,0,0,1-1.69.56,10.14,10.14,0,0,1-4.21-.25c-1.41-.42-2.06-1.73-2.62-3.06a37.18,37.18,0,0,1-2.44-6.12c0-2.47-1.43-3.62-2-5.39a28.19,28.19,0,0,1-1.33-8.93,9.39,9.39,0,0,0-2.1-4.23,10.33,10.33,0,0,1-1.59-2.49,10,10,0,0,0-1.36-6.65l-.56-5.12c-.9-1.6-2.63-2.25-4.06-3.23a25.75,25.75,0,0,0-3.81-1.85c-1.78-1.32-2.5-3.6-3.32-5.82a30.61,30.61,0,0,0-2.22-4c-.21-1.89.24-3.29.32-5,0-.86.1-1.91.14-2.75a7,7,0,0,0,1.69-3.07,4.09,4.09,0,0,0-1.17-4,2.53,2.53,0,0,0-1.45-.49,13.69,13.69,0,0,1-6.44-2.47,6.24,6.24,0,0,1-1.69-1.08,14.44,14.44,0,0,0-7.89-4.75c-2.65-1.69-6-2.26-8.82-3.61-2-1-2.94-3.07-3.66-5.47a3.61,3.61,0,0,0-2.49-2.77,7.76,7.76,0,0,1-3.13-6c-.45-1.5-1.43-2.44-2-3.78a2.65,2.65,0,0,1,0-1.88,12.79,12.79,0,0,0-.49-8.41,9.84,9.84,0,0,1,0-2.17c.37-2.57.83-4.76,2.1-6.4a3.35,3.35,0,0,0,.28-2.63,4.68,4.68,0,0,1,1.73-5.13,2.29,2.29,0,0,0,.94-2.43c.67-1.39,1.13-2.66,2.16-3.41A9.41,9.41,0,0,1,70,82.22a34,34,0,0,1,8.17-9.69c2.38-2.1,4.64-4,7.22-5.9l4.77-3.69,7-4.26A61.09,61.09,0,0,1,104.7,55a3,3,0,0,1,1.4-.15,42.06,42.06,0,0,0,2.15,3.74,7.44,7.44,0,0,1,2,0,9.86,9.86,0,0,1,1.76,1c.32.15.81-.1.94.22a5.2,5.2,0,0,0,1.47,1.79,31.16,31.16,0,0,0,3.46,2.93c1.37,0,2.64.43,3,1.31a4.25,4.25,0,0,1,.23.77,10.61,10.61,0,0,1-1.51,6.82.86.86,0,0,1-1,.34,3.41,3.41,0,0,1-2.31-2.17c-.4-.83-.65-1.88-1.41-2.39a3,3,0,0,0-1.3-.39A1.44,1.44,0,0,0,112.12,70a2,2,0,0,1-.46,1.08c-.66.59-1.81.61-2.52,1.17a2,2,0,0,0-.69,1.84c-.57,2.26-2.82,3.59-5.48,3a5.75,5.75,0,0,0-4.59,1.09c-.24.74.1,1.48-.1,2.18-.08.28-.6,1-.67,1.33-.1.43.34.66.67.79a18.25,18.25,0,0,0,2,.82l1.62,2c.22.24.69.45.92.32,1.64-.85,3.61-1.37,4.94-2.62s1.83-3,2.5-4.78c.1-.25.41-.56.6-.53a15.16,15.16,0,0,0,4.51-.13,4.06,4.06,0,0,1,3.38,3.07c.3,1.19.08,2.77.43,3.89a17.13,17.13,0,0,0,2.31,2.43c.51.2,1.26.27,1.62.8,1,1.48.88,4.41-.67,5.24a8.4,8.4,0,0,1-2.4.81c-.94-.27-2-.75-3.23-1.18A9.94,9.94,0,0,0,112.2,95c-.18.18-.36.7,0,.82.82.23,1.44-.23,2.14-.49a3,3,0,0,1,2-.07.79.79,0,0,1,.51.74,4.66,4.66,0,0,1-1.06,2.74c-1.26,1.89-3.38,3-5.64,3.94-1.84,1.88-2.72,4.86-3.79,7.5-1.81,2.39-4.55,3.86-7.5,5.13a1.86,1.86,0,0,0-.87,2.43A14.67,14.67,0,0,1,99.38,121a5.29,5.29,0,0,1-.08,1.73,1,1,0,0,1-.73.65c-1.55,0-2.21-1.13-3-2a8.89,8.89,0,0,0-2.81-2.65A8.2,8.2,0,0,0,86.64,120c-1,.28-2.38.35-3.17,1.06a1.75,1.75,0,0,0-.35,1.19A10.32,10.32,0,0,1,82,126.6a4.87,4.87,0,0,0-.29,2v2.17a3.32,3.32,0,0,0,.7,1.45,1.28,1.28,0,0,0,1.5.15c1-.85,1.73-2.17,3.3-2.52a3.68,3.68,0,0,0,1.58.16c.93.14,1.27.85,1.55,1.46a4.24,4.24,0,0,1-.27,3.22c-.1.29-.14.72.06.84.52.3,1.06.05,1.58,0,1.06-.14,1.35.71,2,1.1" transform="translate(-0.04 -0.04)"/><path class="cls-53" d="M159.23,236.4c2.48-.38,4.47.31,6.36.63a29.59,29.59,0,0,1,3.54-1.22c4.28,0,7.37,1.35,10.51,2.53a32.83,32.83,0,0,1,4.7,2.37c-1.56.72-3.14,1.41-4.64,2-7.36,3.09-16.16,4.86-25.85,5.56a100,100,0,0,1-43.58-6.4,15,15,0,0,1-3.09-1.31,7.76,7.76,0,0,1,6-3.38l4.43-.69c2.93-.11,5.07.73,7.41,1.28a14.29,14.29,0,0,1,3.63.35c2.87-.29,4.31-2.11,5.85-3.73a4.44,4.44,0,0,0,1.19-2.36,5.84,5.84,0,0,1,3.51-4.23c.16-.08.62,0,.42.56a23.22,23.22,0,0,0-1.13,2.67,1.85,1.85,0,0,0,.39,1.53c.76,1,.94,2.73,1.23,3.75a6.79,6.79,0,0,0,5.21,2.63c1.48.06,2.66.57,4,.71.38,0,.84.11,1.1-.12Z" transform="translate(-0.04 -0.04)"/><path class="cls-53" d="M138.66,62.68a6.39,6.39,0,0,1,.49-1.61,2.74,2.74,0,0,0,.39-2.52,2.89,2.89,0,0,0-.69-1c-.76-.56-1.81-.94-2.31-1.81a7.61,7.61,0,0,1,1-2.43c-1.41-.89-2.86-1.78-3.37-3.44a.44.44,0,0,0-.54-.31h-.07c-.37-.34.07-.8.14-1.23a2.57,2.57,0,0,1-1.13.16c-.08,0-.23.2-.24.2-1.56.24-3.15.37-4.51.56a3,3,0,0,1-2.16.29.75.75,0,0,0-.68.21,12.55,12.55,0,0,0-2.08,4.71c0,.13-.17.63.24.42.31.23.37.65.72.78a4.29,4.29,0,0,0,1.29,0c.29,0,.66,0,.6.31a3.08,3.08,0,0,1-.64,1.41,4,4,0,0,0-.52,3.64,3.46,3.46,0,0,1,.15,2.29,2.25,2.25,0,0,0,0,1.69A16,16,0,0,0,126,66.91a5.57,5.57,0,0,0,2.25,2.57l5.58,1.76a.78.78,0,0,0,.74-.35c.47-.78,1-1.69,1.54-2.51A30.71,30.71,0,0,0,138.66,62.68Z" transform="translate(-0.04 -0.04)"/><path class="cls-53" d="M100.33,125.06a6.47,6.47,0,0,0-3.06-.16l-.34.12a5,5,0,0,0-2.32,2.48,2.13,2.13,0,0,0,2.25,1.34l7.29-1c1.8.3,3.27.86,4.93,1.27a2.53,2.53,0,0,0,1.06-.11c.32-.07.72-.32.66-.67a3,3,0,0,0-1.3-2c-1.45-.43-3.18-.63-4.7-1.18Z" transform="translate(-0.04 -0.04)"/><path class="cls-53" d="M141.74,66.29a1.69,1.69,0,0,1,.66-.16,11.32,11.32,0,0,1,3.1,1.32c.36.22.7.81.29,1.16a7.24,7.24,0,0,1-1.62.93h-1.94a4.82,4.82,0,0,1-2.11-1.32A5.13,5.13,0,0,1,141.74,66.29Z" transform="translate(-0.04 -0.04)"/><path class="cls-53" d="M248.06,137.85a120.35,120.35,0,0,0-2.12-14A187.38,187.38,0,0,0,239.75,105c-2.13-4.54-5.16-9.61-5.16-9.61l-1.4.29s.7,2.22-1.41,1.77-7.17-3-7.45-1.62a7.6,7.6,0,0,0,.42,3.69c.28.88,2.25,3.09.28,2.65s-4.64-.88-4.64-.88a5.72,5.72,0,0,0-4.78-2.36c-3.09.14-5.64-.3-6.05-1.92s-2.25-4.13-9.84-4.57-11,4.42-11,4.42-2.26,3.38-4.51,3.69-4.5.14-5.48.44h0c-.88,1.49-1.09,3.72-1.33,5.88-.87,1.86-2,3.5-1.87,6.28-.35,2.43-.68,4.92-1.06,7.21a36.68,36.68,0,0,0-.13,6.2,5.47,5.47,0,0,0,3.46,5.13l1.38,1.41c.75,1,1.19,2.36,1.92,3.38,1.41,2,2.77,4,5.78,4.26a15.78,15.78,0,0,0,6.06-.79,12,12,0,0,0,5.47-1.35c2.2-.65,3.84-1.89,6.6-1.91a2.71,2.71,0,0,1,1.13.41c1.9.9,2.42,3.22,3,5.42a7.74,7.74,0,0,0,2.23,4.87c1,2.38,1.35,5.4,2,8.15.4,1.64,1.06,4.17-.09,5.52a3.57,3.57,0,0,0-.8,2.72l2.79,6.68a14.52,14.52,0,0,1-1,4.69,55.86,55.86,0,0,0,1.11,8.74c-.12,2.07-.89,3.44-1.25,5.23a1.28,1.28,0,0,0,.6,1.52c3.62-.23,7-.74,10.82-1a4,4,0,0,0,2.09-.69c.9-1.93,1.91-3.87,3.72-5a9.75,9.75,0,0,1,2-4c.9-1,2.15-1.6,3.06-2.58.65-2.18.84-4.75,1.65-6.64.88-2.07,8.8-9.51,8.8-9.51A90.92,90.92,0,0,0,248.06,137.85Z" transform="translate(-0.04 -0.04)"/><path class="cls-53" d="M166.79,55.39l3.62,1.39,1.81.7,2.64,1.13,1-.7L174,56.38l-4.16-3.48-2.79-.42-2.64-1.81-2.09-1.12,1.53-.14,3.62,1.81,5.56,2,2.79.27,1.69,1.39,1.95.15-.84,1.12,3.2,2.78-1.81.84s-2.5-.84-2.36,0-4.18.7-4.18.7l-1.25-1-.42-1-2.08-.57-1.39.57,3.89,3.9-1.51,1.93.42,2.26-.7,2.09-1.12,1.69L168.12,72a3.52,3.52,0,0,0-2.93,1.12c-1.39,1.39.69,1.39,4.18,2.37s7.23,7,7.23,7a27,27,0,0,1-4,.69,37.43,37.43,0,0,0-5.68.56l-2.81,2.08c-.57.09,1.78,2.72,2.53,3.66a5.21,5.21,0,0,1,.85,2.81c.18,1.51.18,2.53.27,2.65.92,1.25,2.87.4,2.78,1.69.22.89,1.21,1.75,1.53,2.36.15.27,2.52-.21,2.64-.13l3.8,1.26h0a.11.11,0,0,0,0-.08A4.25,4.25,0,0,1,182,97.42c2-.15,2.1-1.18,2.1-1.18l.42-3.1L184,90.2,183,87l.69-2.77,1.69-1.91s-2.11-2.66.28-3.69,4.92-1,4.92-1.92,2.67,1.19,3.52,1.48,4.08,2.36,6.47,2.36,6.32,2.5,6.32,2.5L209.56,86l-1.27-3.24.83-.5a8.59,8.59,0,0,0-2.82-2.07c-1.69-.74-6-2.21-6-2.21l-4.64-2.65-2.13-2.07a71.94,71.94,0,0,0,6.9,2.06c.84,0,7.59,4.27,7.59,4.27l3.38,2.5,2.39,2.51A23.78,23.78,0,0,0,217,87.07c.56.14,2.95,1,2.95.44a12.75,12.75,0,0,0-1-2.66l-2.53-2.35-1-2.65,1,.59,2.12,2.5L221.24,85l2,.56L224.51,87l1.27-1.62,1.69.15,2,3.54.68-.72a82.74,82.74,0,0,0-12.62-14.08c-.56-.48-1-1.26-1.74-1.48,0,0-7.28-6.3-7.53-6.53a29.47,29.47,0,0,0-3.11-2.46,100.18,100.18,0,0,0-45.81-17.27.71.71,0,0,0-.7.42c-.13.32.16.57.17.66a9.32,9.32,0,0,1-.81,4.74,1,1,0,0,0,.11.68c.4.7.86,1.34,1.31,2,1.34.79,2.77,1.49,3.58,1.86C164.73,57.76,166.79,55.39,166.79,55.39Z" transform="translate(-0.04 -0.04)"/><polygon class="cls-53" points="208.26 85.86 205.32 86.15 205.62 87.78 209.59 88.81 209.89 87.63 208.26 85.86"/><polygon class="cls-53" points="195.42 84.94 197.92 88.19 199.99 88.78 199.84 87.01 197.18 84.21 195.86 84.06 195.42 84.94"/><polygon class="cls-53" points="192.67 80.54 194.44 82.75 195.47 82.75 193.85 80.25 192.67 80.54"/><polygon class="cls-53" points="163.79 71.71 166.8 69.76 169.11 68.88 168.31 67.8 167.78 67.02 165.91 66.73 163.61 65.75 161.93 64.87 160.86 64.77 160.42 63.21 158.73 63.21 157.32 62.43 156.61 63.4 158.2 64.58 158.73 65.85 159.44 66.53 160.77 66.24 162.37 66.44 163.08 67.51 161.75 67.32 162.9 68.39 162.9 69.37 164.23 69.85 163.79 71.71"/><polygon class="cls-53" points="158.76 66.84 160.09 67.69 161.31 68.64 161.79 69.68 159.8 70.91 158.01 70.81 158.01 69.3 157.06 68.83 156.77 68.07 157.34 67.88 157.34 67.12 158.76 66.84"/><polygon class="cls-53" points="114.87 127.74 114.87 129.25 111.47 130.02 114.12 130.77 118.27 130.77 121.3 131.9 119.41 128.88 117.9 126.99 114.87 127.74"/><path class="cls-54" d="M54.92,178.36c6-.71,8.8-1.4,8.8-8V123c-5.6-6.89-7.2-7.2-8.49-7.2v-2.5H76.31L111,156h.2V125.7c0-6-1.2-9.3-9.29-9.89v-2.5h21.47v2.5c-7.19.9-7.8,3.2-7.8,8v58.85h-2.81L68.28,128.51h-.16v40c0,7.19,2.1,9.08,9.49,9.89v2.5H54.92Z" transform="translate(-0.04 -0.04)"/><path class="cls-54" d="M171,133.39c-1.8-7-7.8-18.48-19.58-18.48-5.2,0-10.71,3-10.71,9.49,0,5.4,1.91,7.59,10.31,11.79l14.68,7.29a20.72,20.72,0,0,1,11,18.4c0,8.79-6.4,20.88-24.78,20.88-9.5,0-14-3.38-17.09-3.38-2.1,0-2.6,1.81-3,3.38H129V158.08h2.92c2,10.09,7.8,21.4,20.49,21.4,12,0,12.49-9.89,12.49-11.19,0-6.7-4.7-9.09-11.19-12.2l-6.73-3.22c-17.09-8.2-17.09-16.79-17.09-21.41,0-6.09,3.1-19.68,22.09-19.68,8,0,12.68,3.3,15.59,3.3,2.29,0,2.81-1.5,3.29-3.38h3v21.68Z" transform="translate(-0.04 -0.04)"/><path class="cls-54" d="M182.59,113.31h56.65v20.08h-2.4c-2.19-10.39-4.89-16.68-22.08-16.68-5.4,0-7.2.4-7.2,4.69v23.18c12.4.2,13.89-6.89,15.3-14.88h2.51v33.8h-2.5c-1.12-8.2-2.69-15.49-15.29-15.49v23.28c0,6.59,4,6.79,11,7.09v2.5h-36v-2.5c5.69-.59,8.79-.9,8.79-7.09V122.9c0-6.59-4.1-6.76-8.79-7.09Z" transform="translate(-0.04 -0.04)"/><path class="cls-2" d="M147.12,44.92A102.32,102.32,0,1,1,44.76,147.22,102.32,102.32,0,0,1,147.12,44.92h0m0,1.27a100.74,100.74,0,1,0,39.33,7.94,100.74,100.74,0,0,0-39.33-7.94Z" transform="translate(-0.04 -0.04)"/><path class="cls-55" d="M339.12,73.85h8V98.34h30.57V73.85h8v59h-8v-27H347.12v27h-8Z" transform="translate(-0.04 -0.04)"/><path class="cls-55" d="M399.47,73.85H420a37.86,37.86,0,0,1,11,1.42,28.9,28.9,0,0,1,8.16,3.79A24.21,24.21,0,0,1,445,84.51a29.64,29.64,0,0,1,3.62,6.33,31.94,31.94,0,0,1,1.92,6.5,34.55,34.55,0,0,1,.58,6,29.77,29.77,0,0,1-2.08,11,27.71,27.71,0,0,1-6.17,9.41,30.55,30.55,0,0,1-10.12,6.62,36.35,36.35,0,0,1-13.95,2.5H399.47Zm8,51.47h10.08a33.3,33.3,0,0,0,9.62-1.37,23.28,23.28,0,0,0,8-4.13,19.72,19.72,0,0,0,5.42-6.87,21.84,21.84,0,0,0,2-9.62,29,29,0,0,0-.91-6.62,19.94,19.94,0,0,0-3.46-7.2,20.43,20.43,0,0,0-7-5.79q-4.49-2.37-11.66-2.37h-12Z" transform="translate(-0.04 -0.04)"/><path class="cls-55" d="M462.51,73.85h20.74a24.34,24.34,0,0,1,9.33,1.54,15.82,15.82,0,0,1,5.79,3.92,13.25,13.25,0,0,1,3,5.33,20.74,20.74,0,0,1,.84,5.7,15.3,15.3,0,0,1-3.88,10.2,16.27,16.27,0,0,1-4.58,3.58,16,16,0,0,1-6,1.8l16.75,26.9h-10l-15-26h-8.91v26h-8Zm8,26H481a28.61,28.61,0,0,0,4.62-.38,12.58,12.58,0,0,0,4.09-1.37,7.63,7.63,0,0,0,2.87-2.88,11.52,11.52,0,0,0,0-9.74,7.47,7.47,0,0,0-2.87-2.87,12.39,12.39,0,0,0-4.09-1.39,28.6,28.6,0,0,0-4.62-.37H470.51Z" transform="translate(-0.04 -0.04)"/><path class="cls-55" d="M535.22,73.85h20.57a37.86,37.86,0,0,1,11,1.42A28.9,28.9,0,0,1,575,79.06a23.64,23.64,0,0,1,5.75,5.45,29.26,29.26,0,0,1,3.63,6.33,32.56,32.56,0,0,1,1.91,6.5,33.6,33.6,0,0,1,.58,6,29.57,29.57,0,0,1-2.08,11,27.83,27.83,0,0,1-6.16,9.41,30.55,30.55,0,0,1-10.12,6.62,36.35,36.35,0,0,1-14,2.5H535.22Zm8,51.47h10.07a33,33,0,0,0,9.62-1.37,23.28,23.28,0,0,0,8-4.13,19.81,19.81,0,0,0,5.41-6.87,21.84,21.84,0,0,0,2-9.62,29,29,0,0,0-.92-6.62,19.91,19.91,0,0,0-3.45-7.2,20.43,20.43,0,0,0-7-5.79q-4.5-2.37-11.66-2.37h-12Z" transform="translate(-0.04 -0.04)"/><path class="cls-55" d="M600,120.49a13.1,13.1,0,0,0,5.53,4.79,16.57,16.57,0,0,0,7,1.54,14.46,14.46,0,0,0,4.08-.62,12.56,12.56,0,0,0,3.79-1.88,10.15,10.15,0,0,0,2.79-3.08,8.21,8.21,0,0,0,1.08-4.25,6.36,6.36,0,0,0-2.16-5.2,18.47,18.47,0,0,0-5.38-3c-2.13-.81-4.47-1.58-7-2.33a28.19,28.19,0,0,1-7-3.13A17,17,0,0,1,597.38,98q-2.16-3.37-2.16-9.12A15.72,15.72,0,0,1,599.88,78a19.76,19.76,0,0,1,6.2-4,23,23,0,0,1,9.12-1.63,32.18,32.18,0,0,1,9.25,1.33,15.88,15.88,0,0,1,7.74,5.42L625.7,85a11,11,0,0,0-4.28-3.82,13.4,13.4,0,0,0-6.25-1.41,15.08,15.08,0,0,0-5.53.87,9.64,9.64,0,0,0-3.54,2.25,8,8,0,0,0-1.88,3,9,9,0,0,0-.54,2.91,7.42,7.42,0,0,0,2.17,5.75,16.87,16.87,0,0,0,5.37,3.25,66.3,66.3,0,0,0,7,2.25,29.41,29.41,0,0,1,7,2.79,16,16,0,0,1,5.37,4.83q2.17,3,2.17,8.37a17.62,17.62,0,0,1-1.63,7.66,17,17,0,0,1-4.37,5.75,19.75,19.75,0,0,1-6.49,3.58,25.25,25.25,0,0,1-8,1.25,29.08,29.08,0,0,1-10.75-2,17.66,17.66,0,0,1-8.07-6.17Z" transform="translate(-0.04 -0.04)"/><path class="cls-55" d="M685.63,86.59a16.36,16.36,0,0,0-6.33-5,18.81,18.81,0,0,0-7.91-1.75,21.31,21.31,0,0,0-9,1.87,21,21,0,0,0-6.91,5.12A23.56,23.56,0,0,0,651,94.45a27.46,27.46,0,0,0-1.59,9.37,25.77,25.77,0,0,0,1.5,8.83,22.29,22.29,0,0,0,4.33,7.33,20.4,20.4,0,0,0,6.92,5,22.4,22.4,0,0,0,9.24,1.83,18.29,18.29,0,0,0,8.91-2.08,19.14,19.14,0,0,0,6.5-5.83l6.75,5.08a29.16,29.16,0,0,1-2.34,2.62,23.57,23.57,0,0,1-4.41,3.42,31.58,31.58,0,0,1-6.62,3,28.3,28.3,0,0,1-9,1.29,29,29,0,0,1-12.61-2.67,30.88,30.88,0,0,1-17.7-27.82,34.33,34.33,0,0,1,2.21-12.6,29.87,29.87,0,0,1,6.29-10,28.23,28.23,0,0,1,9.7-6.54,32.55,32.55,0,0,1,12.49-2.33,30.54,30.54,0,0,1,11.52,2.25,21.44,21.44,0,0,1,9.21,6.91Z" transform="translate(-0.04 -0.04)"/><path class="cls-55" d="M744.85,73.85h7.27l25.24,59H768l-5.91-14.63H734l-5.83,14.58h-9.33Zm14.32,37.37-11-27.07H748l-11.15,27.07Z" transform="translate(-0.04 -0.04)"/><path class="cls-55" d="M776.83,93.34h8.41l8.88,29.48h.17l9.45-29.48h8l10,29.48h.17l8.41-29.48h8l-12.77,39.48H818l-10.45-29.49h-.17l-9.53,29.49h-8Z" transform="translate(-0.04 -0.04)"/><path class="cls-55" d="M845,98.22a20.88,20.88,0,0,1,7.33-4.37,25.14,25.14,0,0,1,8.33-1.46,22.71,22.71,0,0,1,7.5,1,14.51,14.51,0,0,1,5.12,2.92,11.61,11.61,0,0,1,3,4.2,13,13,0,0,1,1,5v20.15c0,1.39,0,2.67.08,3.84s.14,2.27.25,3.33h-6.66q-.25-3-.25-6h-.17a14.41,14.41,0,0,1-5.91,5.41,18.62,18.62,0,0,1-7.92,1.59,17.9,17.9,0,0,1-5.24-.75,12.71,12.71,0,0,1-4.37-2.25,10.7,10.7,0,0,1-3-3.71,12.82,12.82,0,0,1,.62-11.53,13,13,0,0,1,4.67-4.21,22.57,22.57,0,0,1,6.91-2.33,48.85,48.85,0,0,1,8.45-.71h5.42v-1.66a8.28,8.28,0,0,0-2.33-5.71,8.53,8.53,0,0,0-2.92-1.92,10.94,10.94,0,0,0-4.16-.7,15.56,15.56,0,0,0-3.79.41,17.6,17.6,0,0,0-3,1,13.46,13.46,0,0,0-2.41,1.46c-.72.56-1.42,1.08-2.08,1.58Zm21.16,15.61a52.22,52.22,0,0,0-5.45.29,21.08,21.08,0,0,0-5.08,1.12,10,10,0,0,0-3.75,2.34,5.25,5.25,0,0,0-1.46,3.83,5.43,5.43,0,0,0,2.29,4.91,11.25,11.25,0,0,0,6.21,1.5,12.09,12.09,0,0,0,5.24-1,9.87,9.87,0,0,0,3.5-2.71,10.55,10.55,0,0,0,1.92-3.7,14.66,14.66,0,0,0,.58-4v-2.5Z" transform="translate(-0.04 -0.04)"/><path class="cls-55" d="M888,93.34h7.49v6.08h.17a10.58,10.58,0,0,1,2-2.87,13.25,13.25,0,0,1,2.79-2.21,14.39,14.39,0,0,1,3.37-1.46,12.62,12.62,0,0,1,3.66-.54,10.82,10.82,0,0,1,3.34.5l-.34,8.08q-.91-.26-1.83-.42a10.2,10.2,0,0,0-1.83-.16c-3.67,0-6.47,1-8.41,3.08s-2.92,5.24-2.92,9.57v19.83H888Z" transform="translate(-0.04 -0.04)"/><path class="cls-55" d="M956.89,132.82H949.4v-5.67h-.17a14.32,14.32,0,0,1-6,4.92,18.58,18.58,0,0,1-7.79,1.75,20.88,20.88,0,0,1-8.29-1.59,18.26,18.26,0,0,1-6.33-4.41,19.86,19.86,0,0,1-4-6.58,22.94,22.94,0,0,1-1.41-8.16,23.44,23.44,0,0,1,1.41-8.21,19.76,19.76,0,0,1,4-6.58,18.86,18.86,0,0,1,6.33-4.37,21,21,0,0,1,8.29-1.58,18.3,18.3,0,0,1,8,1.79A13.67,13.67,0,0,1,949.24,99h.17V69.85h7.49Zm-20.48-6a13.57,13.57,0,0,0,5.41-1A12,12,0,0,0,945.9,123a12.63,12.63,0,0,0,2.58-4.33,17.1,17.1,0,0,0,0-11.08,12.47,12.47,0,0,0-2.58-4.33,12,12,0,0,0-4.08-2.83,14.58,14.58,0,0,0-10.83,0,12,12,0,0,0-4.08,2.83,12.47,12.47,0,0,0-2.58,4.33,17.1,17.1,0,0,0,0,11.08,12.63,12.63,0,0,0,2.58,4.33,12,12,0,0,0,4.08,2.83A13.59,13.59,0,0,0,936.41,126.82Z" transform="translate(-0.04 -0.04)"/><path class="cls-55" d="M989.21,103.22a11.61,11.61,0,0,0-3.29-2.79,9.5,9.5,0,0,0-4.79-1.12,9.08,9.08,0,0,0-4.62,1.12,3.58,3.58,0,0,0-2,3.29,3.75,3.75,0,0,0,1.12,2.83,9,9,0,0,0,2.67,1.75,15.23,15.23,0,0,0,3.29,1l3,.58a34.59,34.59,0,0,1,4.54,1.42,12.76,12.76,0,0,1,3.66,2.16,9.54,9.54,0,0,1,2.42,3.25,11.18,11.18,0,0,1,.87,4.67,10.84,10.84,0,0,1-1.42,5.7A11.88,11.88,0,0,1,991,131a15.46,15.46,0,0,1-5.12,2.17,25.66,25.66,0,0,1-5.79.67,22.87,22.87,0,0,1-8.62-1.5,15.49,15.49,0,0,1-6.62-5.5l5.66-4.66a22.79,22.79,0,0,0,4.08,3.24,10.12,10.12,0,0,0,5.5,1.42,14.63,14.63,0,0,0,2.87-.29,8.9,8.9,0,0,0,2.59-.92,5.68,5.68,0,0,0,1.83-1.58,3.59,3.59,0,0,0,.7-2.21,3.79,3.79,0,0,0-1-2.75,7.36,7.36,0,0,0-2.49-1.7,17.68,17.68,0,0,0-3.09-1c-1.08-.25-2-.46-2.87-.63a45.27,45.27,0,0,1-4.58-1.33,14.28,14.28,0,0,1-3.83-2,9.25,9.25,0,0,1-2.67-3.16,10.26,10.26,0,0,1-1-4.75,10.62,10.62,0,0,1,1.3-5.37,11.27,11.27,0,0,1,3.41-3.79,15.67,15.67,0,0,1,4.83-2.25,20.15,20.15,0,0,1,5.46-.75,19.92,19.92,0,0,1,7.66,1.5,12.16,12.16,0,0,1,5.83,5Z" transform="translate(-0.04 -0.04)"/><path class="cls-55" d="M347.61,209h-6.84v-5.62h7.63l1.44-10.37H343v-5.61h7.64l2-14.69h5.62l-2,14.69h8.43l2-14.69h5.62l-2,14.69h6.81v5.61h-7.63l-1.44,10.37h6.84V209h-7.63l-2,14.68h-5.61l2-14.68h-8.42l-2,14.68h-5.61Zm7.85-16L354,203.42h8.42l1.44-10.37Z" transform="translate(-0.04 -0.04)"/><path class="cls-55" d="M398.44,180.67l-9.32,8.64-4-4.83,14.19-11.73h6.12v51h-6.92Z" transform="translate(-0.04 -0.04)"/><path class="cls-55" d="M443.23,204h-.29a12.65,12.65,0,0,1-5.62,1.15,17.37,17.37,0,0,1-5.54-.94,14.72,14.72,0,0,1-5.08-2.91,15.05,15.05,0,0,1-3.7-5,16.72,16.72,0,0,1-1.44-7.24,18.32,18.32,0,0,1,1.4-7.38,15.79,15.79,0,0,1,3.78-5.36,16.05,16.05,0,0,1,5.54-3.28,20.54,20.54,0,0,1,6.77-1.12,19.75,19.75,0,0,1,6.77,1.16,16.45,16.45,0,0,1,5.54,3.31,15.82,15.82,0,0,1,5.19,12,24.07,24.07,0,0,1-.36,4.32,19.87,19.87,0,0,1-1.05,3.71,27.63,27.63,0,0,1-1.62,3.49c-.62,1.15-1.32,2.33-2.08,3.53l-12.89,20.28h-8.14Zm6.41-15.48a11.66,11.66,0,0,0-.76-4.25,9.38,9.38,0,0,0-2.16-3.35,10.1,10.1,0,0,0-3.35-2.2,12.24,12.24,0,0,0-8.64,0,10.1,10.1,0,0,0-3.35,2.2,9.84,9.84,0,0,0-2.16,3.35,12.39,12.39,0,0,0,0,8.49,9.75,9.75,0,0,0,2.16,3.35,10.1,10.1,0,0,0,3.35,2.2,12.24,12.24,0,0,0,8.64,0,10.1,10.1,0,0,0,3.35-2.2,9.38,9.38,0,0,0,2.16-3.35,11.78,11.78,0,0,0,.76-4.24Z" transform="translate(-0.04 -0.04)"/><path class="cls-55" d="M462.38,216.38l20.45-20.3c.73-.7,1.43-1.43,2.09-2.2a20.9,20.9,0,0,0,1.8-2.48,13.61,13.61,0,0,0,1.26-2.74,9.84,9.84,0,0,0,.46-3,8.06,8.06,0,0,0-.68-3.39,7.46,7.46,0,0,0-1.87-2.55,8.32,8.32,0,0,0-2.81-1.62,10,10,0,0,0-3.42-.58,9.23,9.23,0,0,0-6.19,2.09,9.4,9.4,0,0,0-3.1,5.76l-7.49-.65a16.11,16.11,0,0,1,2-5.87,14.44,14.44,0,0,1,3.68-4.14,15.13,15.13,0,0,1,5-2.45,23.22,23.22,0,0,1,6.15-.79,21.2,21.2,0,0,1,6.23.9,15.16,15.16,0,0,1,5.18,2.65,12.35,12.35,0,0,1,3.46,4.39,14,14,0,0,1,1.26,6.15,14.32,14.32,0,0,1-.76,4.72,19.51,19.51,0,0,1-2,4.14,24.44,24.44,0,0,1-2.81,3.67c-1,1.15-2.16,2.28-3.31,3.39l-16.84,16.2h25.63v6H462.38Z" transform="translate(-0.04 -0.04)"/><path class="cls-55" d="M523.29,212.49H501.55v-7l20.3-32.69h8.35v33.69h7.2v6h-7.2v11.23h-6.91Zm0-31.53h-.17l-15.55,25.48h15.69Z" transform="translate(-0.04 -0.04)"/><path class="cls-55" d="M542.44,216.38l20.45-20.3a27.16,27.16,0,0,0,2.09-2.2,20.9,20.9,0,0,0,1.8-2.48,12.59,12.59,0,0,0,1.26-2.74,9.85,9.85,0,0,0,.47-3,8.07,8.07,0,0,0-.69-3.39,7.27,7.27,0,0,0-1.87-2.55,8.32,8.32,0,0,0-2.81-1.62,10,10,0,0,0-3.42-.58,9.23,9.23,0,0,0-6.19,2.09,9.5,9.5,0,0,0-3.1,5.76l-7.48-.65a15.75,15.75,0,0,1,2-5.87,14.26,14.26,0,0,1,3.67-4.14,15.13,15.13,0,0,1,5-2.45,23.29,23.29,0,0,1,6.16-.79,21.13,21.13,0,0,1,6.22.9,15.24,15.24,0,0,1,5.12,2.65,12.32,12.32,0,0,1,3.45,4.39,14,14,0,0,1,1.26,6.15,14.57,14.57,0,0,1-.75,4.72,20.53,20.53,0,0,1-2,4.14,25.6,25.6,0,0,1-2.8,3.67q-1.59,1.72-3.31,3.39l-16.78,16.2h25.63v6H542.44Z" transform="translate(-0.04 -0.04)"/><path class="cls-55" d="M581.61,198.22c0-1.88.1-3.82.29-5.84a38.58,38.58,0,0,1,1-5.94,31.44,31.44,0,0,1,2-5.58,16.43,16.43,0,0,1,3.24-4.64,15.19,15.19,0,0,1,4.68-3.17,17.24,17.24,0,0,1,12.6,0,15.16,15.16,0,0,1,4.7,3.17,16.43,16.43,0,0,1,3.24,4.64,31.44,31.44,0,0,1,2,5.58,38.58,38.58,0,0,1,1,5.94c.19,2,.29,4,.29,5.84a56.9,56.9,0,0,1-.72,8.64,29.59,29.59,0,0,1-2.67,8.56A18.06,18.06,0,0,1,607.9,222a16.33,16.33,0,0,1-17.64,0,18.06,18.06,0,0,1-5.36-6.56,29.59,29.59,0,0,1-2.67-8.56A55.54,55.54,0,0,1,581.61,198.22Zm6.91,0q0,2.52.33,6a28.62,28.62,0,0,0,1.4,6.66,14.3,14.3,0,0,0,3.21,5.44,8.46,8.46,0,0,0,11.44,0,14.3,14.3,0,0,0,3.21-5.44,28.62,28.62,0,0,0,1.4-6.66q.33-3.45.33-6c0-1.16,0-2.46-.11-3.93a33.27,33.27,0,0,0-.51-4.46,28.8,28.8,0,0,0-1.11-4.39,14.86,14.86,0,0,0-1.91-3.82,9.2,9.2,0,0,0-2.92-2.7,8.81,8.81,0,0,0-8.2,0,9,9,0,0,0-2.92,2.7,14.86,14.86,0,0,0-1.91,3.82,28.8,28.8,0,0,0-1.11,4.39,33.27,33.27,0,0,0-.51,4.46c-.07,1.49-.11,2.79-.11,3.93Z" transform="translate(-0.04 -0.04)"/><path class="cls-55" d="M653.12,179.22H632.44L632.23,192a8.2,8.2,0,0,1,1.44-.43c.62-.14,1.26-.26,1.91-.36s1.28-.17,1.9-.22,1.16-.07,1.59-.07a16.71,16.71,0,0,1,6.51,1.23,14.42,14.42,0,0,1,5,3.45,15.27,15.27,0,0,1,3.2,5.33,19.91,19.91,0,0,1,1.12,6.84,16.57,16.57,0,0,1-1.41,6.91,16,16,0,0,1-3.85,5.33,17,17,0,0,1-5.69,3.42,20.08,20.08,0,0,1-7,1.19,17,17,0,0,1-9.36-2.67,14.68,14.68,0,0,1-6-7.63l6.92-2.37a9.17,9.17,0,0,0,9.46,6.62,10.46,10.46,0,0,0,3.87-.72,9,9,0,0,0,3.18-2.05,9.77,9.77,0,0,0,2.13-3.28,11.58,11.58,0,0,0,.8-4.39c0-3.74-1.15-6.54-3.42-8.39a13.64,13.64,0,0,0-8.9-2.77,23.42,23.42,0,0,0-4.93.68,25.8,25.8,0,0,0-5.58,2l.58-26.85h27.42Z" transform="translate(-0.04 -0.04)"/><path class="cls-55" d="M687.88,209H681v-5.62h7.64l1.44-10.37h-6.84v-5.61h7.63l2-14.69h5.62l-2,14.69H705l2-14.69h5.62l-2,14.69h6.84v5.61h-7.63l-1.44,10.37h6.84V209h-7.63l-2,14.68H700L702,209h-8.42l-2,14.68h-5.61Zm7.85-16-1.44,10.37h8.43l1.4-10.36Z" transform="translate(-0.04 -0.04)"/><path class="cls-55" d="M738.72,180.67l-9.36,8.64-4-4.83,14.19-11.73h6.12v51h-6.95Z" transform="translate(-0.04 -0.04)"/><path class="cls-55" d="M783.5,204h-.29a12.63,12.63,0,0,1-5.61,1.15,17.48,17.48,0,0,1-5.55-.94A14.68,14.68,0,0,1,767,201.3a15,15,0,0,1-3.71-5,16.86,16.86,0,0,1-1.44-7.24,18.32,18.32,0,0,1,1.4-7.38,15.79,15.79,0,0,1,3.78-5.36,16.1,16.1,0,0,1,5.55-3.28,20.44,20.44,0,0,1,6.76-1.12,19.75,19.75,0,0,1,6.77,1.16,16.49,16.49,0,0,1,5.55,3.31,15.74,15.74,0,0,1,5.18,12,24.07,24.07,0,0,1-.36,4.32,20.75,20.75,0,0,1-1,3.71,31.57,31.57,0,0,1-1.62,3.49c-.63,1.15-1.33,2.33-2.09,3.53l-12.93,20.33h-8.14Zm6.41-15.48a11.66,11.66,0,0,0-.76-4.25,9.38,9.38,0,0,0-2.16-3.35,10.1,10.1,0,0,0-3.35-2.2,12.24,12.24,0,0,0-8.64,0,10.1,10.1,0,0,0-3.35,2.2,9.58,9.58,0,0,0-2.15,3.35,12.27,12.27,0,0,0,0,8.49,9.49,9.49,0,0,0,2.15,3.35,10.1,10.1,0,0,0,3.35,2.2,12.24,12.24,0,0,0,8.64,0,10.1,10.1,0,0,0,3.35-2.2,9.38,9.38,0,0,0,2.16-3.35,11.78,11.78,0,0,0,.76-4.24Z" transform="translate(-0.04 -0.04)"/><path class="cls-55" d="M802.65,216.38l20.47-20.3c.73-.7,1.43-1.43,2.09-2.2a20.9,20.9,0,0,0,1.8-2.48,13.08,13.08,0,0,0,1.26-2.74,9.85,9.85,0,0,0,.47-3,8.07,8.07,0,0,0-.69-3.39,7.46,7.46,0,0,0-1.87-2.55,8.32,8.32,0,0,0-2.81-1.62,10,10,0,0,0-3.42-.58,9.23,9.23,0,0,0-6.19,2.09,9.5,9.5,0,0,0-3.1,5.76l-7.48-.65a15.75,15.75,0,0,1,2-5.87,14.26,14.26,0,0,1,3.67-4.14,15.13,15.13,0,0,1,5-2.45,23.22,23.22,0,0,1,6.15-.79,21.2,21.2,0,0,1,6.23.9,15.06,15.06,0,0,1,5.11,2.67,12.35,12.35,0,0,1,3.46,4.39,14,14,0,0,1,1.26,6.15,14.32,14.32,0,0,1-.76,4.72,19.51,19.51,0,0,1-2,4.14,25.6,25.6,0,0,1-2.8,3.67q-1.59,1.72-3.32,3.39l-16.77,16.2H836v6H802.65Z" transform="translate(-0.04 -0.04)"/><path class="cls-55" d="M863.56,212.49H841.82v-7l20.3-32.74h8.36v33.69h7.2v6h-7.2v11.28h-6.92Zm0-31.53h-.14l-15.55,25.48h15.69Z" transform="translate(-0.04 -0.04)"/><path class="cls-55" d="M881.85,198.22c0-1.88.1-3.82.29-5.84a38.58,38.58,0,0,1,1-5.94,31.44,31.44,0,0,1,2-5.58,16.43,16.43,0,0,1,3.24-4.64,15.19,15.19,0,0,1,4.68-3.17,17.24,17.24,0,0,1,12.6,0,15.19,15.19,0,0,1,4.68,3.17,16.43,16.43,0,0,1,3.24,4.64,31.44,31.44,0,0,1,2,5.58,38.58,38.58,0,0,1,1,5.94c.19,2,.29,4,.29,5.84a56.9,56.9,0,0,1-.72,8.64,29.59,29.59,0,0,1-2.67,8.56,18.06,18.06,0,0,1-5.36,6.56,16.33,16.33,0,0,1-17.64,0,18.06,18.06,0,0,1-5.36-6.56,29.59,29.59,0,0,1-2.67-8.56A56.78,56.78,0,0,1,881.85,198.22Zm6.91,0q0,2.52.33,6a28.62,28.62,0,0,0,1.4,6.66,14.3,14.3,0,0,0,3.21,5.44,8.46,8.46,0,0,0,11.44,0,14.3,14.3,0,0,0,3.21-5.44,28.62,28.62,0,0,0,1.4-6.66q.33-3.45.33-6c0-1.16,0-2.46-.11-3.93a33.27,33.27,0,0,0-.51-4.46,28.8,28.8,0,0,0-1.11-4.39,14.86,14.86,0,0,0-1.91-3.82,9,9,0,0,0-2.92-2.7,8.81,8.81,0,0,0-8.2,0,9,9,0,0,0-2.92,2.7,14.86,14.86,0,0,0-1.91,3.82,28.8,28.8,0,0,0-1.11,4.39,33.27,33.27,0,0,0-.51,4.46c-.07,1.49-.11,2.79-.11,3.93Z" transform="translate(-0.04 -0.04)"/><path class="cls-55" d="M921.88,198.22c0-1.88.1-3.82.29-5.84a37.41,37.41,0,0,1,1-5.94,31.44,31.44,0,0,1,2-5.58,16.43,16.43,0,0,1,3.24-4.64,15.19,15.19,0,0,1,4.68-3.17,17.24,17.24,0,0,1,12.6,0,15.19,15.19,0,0,1,4.68,3.17,16.43,16.43,0,0,1,3.24,4.64,31.44,31.44,0,0,1,2,5.58,38.58,38.58,0,0,1,1,5.94c.19,2,.29,4,.29,5.84a56.9,56.9,0,0,1-.72,8.64,29.88,29.88,0,0,1-2.66,8.56,18.19,18.19,0,0,1-5.37,6.56,16.33,16.33,0,0,1-17.64,0,18.06,18.06,0,0,1-5.36-6.56,29.59,29.59,0,0,1-2.67-8.56A56.78,56.78,0,0,1,921.88,198.22Zm6.92,0c0,1.68.1,3.67.32,6a29.69,29.69,0,0,0,1.4,6.66,14.3,14.3,0,0,0,3.21,5.44,8.45,8.45,0,0,0,11.45,0,14.62,14.62,0,0,0,3.2-5.44,28.62,28.62,0,0,0,1.4-6.66q.33-3.45.33-6c0-1.16,0-2.46-.11-3.93a33.27,33.27,0,0,0-.51-4.46,28.8,28.8,0,0,0-1.11-4.39,14.86,14.86,0,0,0-1.91-3.82,9.17,9.17,0,0,0-2.91-2.7,8.83,8.83,0,0,0-8.21,0,9,9,0,0,0-2.92,2.7,14.86,14.86,0,0,0-1.91,3.82,28.8,28.8,0,0,0-1.11,4.39,36.89,36.89,0,0,0-.51,4.46C928.83,195.78,928.8,197.08,928.8,198.22Z" transform="translate(-0.04 -0.04)"/><path class="cls-55" d="M979.48,224.59a20,20,0,0,1-6.51-1,14.71,14.71,0,0,1-5.29-3.06,14.39,14.39,0,0,1-3.53-4.89,15.52,15.52,0,0,1-1.3-6.48,12.15,12.15,0,0,1,.76-4.39,13.06,13.06,0,0,1,2-3.64,12.31,12.31,0,0,1,3.06-2.74,14.23,14.23,0,0,1,3.85-1.69v-.21a9.48,9.48,0,0,1-2.88-1.3,10,10,0,0,1-2.55-2.38,12.16,12.16,0,0,1-1.84-3.49,14.22,14.22,0,0,1-.72-4.71,11.38,11.38,0,0,1,1.19-5.22,12,12,0,0,1,3.24-4,15.19,15.19,0,0,1,4.75-2.56,18.66,18.66,0,0,1,11.45,0,15.19,15.19,0,0,1,4.75,2.56,12.09,12.09,0,0,1,3.24,4,11.38,11.38,0,0,1,1.19,5.22,14.22,14.22,0,0,1-.72,4.71,12.3,12.3,0,0,1-1.84,3.49,10.17,10.17,0,0,1-2.56,2.38,9.48,9.48,0,0,1-2.88,1.3v.21a14.43,14.43,0,0,1,3.86,1.69,12.69,12.69,0,0,1,3.06,2.74,13.32,13.32,0,0,1,2,3.64,12.41,12.41,0,0,1,.76,4.39,15.68,15.68,0,0,1-1.3,6.48,14.39,14.39,0,0,1-3.53,4.89,14.71,14.71,0,0,1-5.29,3.06A20,20,0,0,1,979.48,224.59Zm0-6a9.61,9.61,0,0,0,7-2.63,9.1,9.1,0,0,0,2.7-6.8,10.32,10.32,0,0,0-.75-4.07,8.26,8.26,0,0,0-2.09-3,9.11,9.11,0,0,0-3.1-1.8,11.3,11.3,0,0,0-3.78-.61,9.84,9.84,0,0,0-7,2.7,8.88,8.88,0,0,0-2.74,6.73,9.63,9.63,0,0,0,.8,4,8.46,8.46,0,0,0,2.12,3,9.58,9.58,0,0,0,3.09,1.83,10.84,10.84,0,0,0,3.75.6Zm-8-33a8.56,8.56,0,0,0,.54,3,7.94,7.94,0,0,0,1.55,2.55,8,8,0,0,0,2.48,1.84,7.76,7.76,0,0,0,3.42.72A8.26,8.26,0,0,0,983,193a7.43,7.43,0,0,0,4-4.35,9,9,0,0,0,.51-3,8,8,0,0,0-2.2-5.79,7.71,7.71,0,0,0-5.8-2.27,7.87,7.87,0,0,0-5.65,2.23,7.71,7.71,0,0,0-2.33,5.73Z" transform="translate(-0.04 -0.04)"/></svg>